/* XPM */
static char *noname[] = {
/* width height ncolors chars_per_pixel */
"20 320 8 1",
/* colors */
"` c None",
"a c #CFCFC9C95454",
"b c #FFFFFFFF0000",
"c c #00000000AFAF",
"d c #00000000FFFF",
"e c #999995953E3E",
"f c #010100000000",
"g c #FFFF00000000",
/* pixels */
"````````````````````",
"```````bggggb```````",
"```````beggeb```````",
"```````ebeebe```````",
"`````cdcebbecdc`````",
"````cdddeffedddc````",
"````ddddabbadddd````",
"````cdddbffbdddc````",
"`````cddabbaddc`````",
"`````cddeffeddc`````",
"``````dddbbddd``````",
"``````dddffddd``````",
"`````cdddbbdddc`````",
"`````cdddffdddc`````",
"````cddddaaddddc````",
"````dddddffddddd````",
"````cddddeeddddc````",
"`````cdc````cdc`````",
"````````````````````",
"````````````````````",
"``````````b`````````",
"``````````bggg``````",
"``````````eegggb````",
"``````cdcdcbeeeb````",
"``````ddddeebbbe````",
"`````cdddaffeec`````",
"``````cddbbbadddc```",
"``````cddaffbdddc```",
"``````dddebbadddd```",
"``````dddbffedddc```",
"````cdddfbddddc`````",
"```ccdddbfddd`c`````",
"``ddddddfbddd```````",
"``cdddddafdddc``````",
"```cdddffadddc``````",
"```dcdeeddddd```````",
"````````dddddc``````",
"`````````cddc```````",
"```````````c````````",
"````````````````````",
"``````````````b`````",
"``````````c``bg`````",
"````````dcdd`eeg````",
"````````cdddcebggg``",
"```````cddddebegeb``",
"```````cdddabfbebb``",
"```````ddabfbfece```",
"````ccdddebbfaedd```",
"```cddddddffabdddc``",
"`cddddddfbbedddddc``",
"``dddddfbfddddcdd```",
"`cddddafbddddc`c````",
"```cddfaddddd```````",
"````eefdddd`````````",
"``````ddddcc````````",
"```````dddd`````````",
"``````cdddc`````````",
"````````ccd`````````",
"````````````````````",
"````````````````````",
"````````````````````",
"````````````````````",
"`````````````cc`````",
"``````````cdddd``b``",
"```````````ddddcebg`",
"`````````ccddddebeg`",
"``cdccc`ddddbaebegg`",
"```ddddddddeafbfbegg",
"``cdddddddbfbfbfebeb",
"``ddddddbfbfbbaeceb`",
"```cdddffbfdeadddd``",
"````efaadddddddddc``",
"````efddddddddddd```",
"`````ddddddd`cccdc``",
"`````cdddcc`````````",
"`````dddd```````````",
"``````ccdc``````````",
"````````````````````",
"````````````````````",
"````````````````````",
"````````````````````",
"````````````````````",
"````````````````````",
"````````````````````",
"````cdc``````cdc````",
"```cdddcc``ccdddc```",
"```dddddddddddddd```",
"```cddddddddddddcebb",
"````dddddddeabaeebeg",
"````efafbfbfbfbfbegg",
"````efafbfbfbfbfbegg",
"````dddddddeabaeebeg",
"```cddddddddddddcebb",
"```dddddddddddddd```",
"```cdddcc``ccdddc```",
"````cdc``````cdc````",
"````````````````````",
"````````````````````",
"````````````````````",
"````````````````````",
"````````````````````",
"````````````````````",
"````````````````````",
"``````ccdc``````````",
"`````dddd```````````",
"`````cdddcc`````````",
"`````ddddddd`cccdc``",
"````efddddddddddd```",
"````efaadddddddddc``",
"```cdddffbfdeadddd``",
"``ddddddbfbfbbaeceb`",
"``cdddddddbfbfbfebeb",
"```ddddddddeafbfbegg",
"``cdccc`ddddbaebegg`",
"`````````ccddddebeg`",
"```````````ddddcebg`",
"``````````cdddd``b``",
"`````````````cc`````",
"````````````````````",
"````````````````````",
"````````````````````",
"````````````````````",
"````````ccd`````````",
"``````cdddc`````````",
"```````dddd`````````",
"``````ddddcc````````",
"````eefdddd`````````",
"```cddfaddddd```````",
"`cddddafbddddc`c````",
"``dddddfbfddddcdd```",
"`cddddddfbbedddddc``",
"```cddddddffabdddc``",
"````ccdddebbfaedd```",
"```````ddabfbfece```",
"```````cdddabfbebb``",
"```````cddddebegeb``",
"````````cdddcebggg``",
"````````dcdd`eeg````",
"``````````c``bg`````",
"``````````````b`````",
"````````````````````",
"```````````c````````",
"`````````cddc```````",
"````````dddddc``````",
"```dcdeeddddd```````",
"```cdddffadddc``````",
"``cdddddafdddc``````",
"``ddddddfbddd```````",
"```ccdddbfddd`c`````",
"````cdddfbddddc`````",
"``````dddbffedddc```",
"``````dddebbadddd```",
"``````cddaffbdddc```",
"``````cddbbbadddc```",
"`````cdddaffeec`````",
"``````ddddeebbbe````",
"``````cdcdcbeeeb````",
"``````````eegggb````",
"``````````bggg``````",
"``````````b`````````",
"````````````````````",
"````````````````````",
"`````cdc````cdc`````",
"````cddddeeddddc````",
"````dddddffddddd````",
"````cddddaaddddc````",
"`````cdddffdddc`````",
"`````cdddbbdddc`````",
"``````dddffddd``````",
"``````dddbbddd``````",
"`````cddeffeddc`````",
"`````cddabbaddc`````",
"````cdddbffbdddc````",
"````ddddabbadddd````",
"````cdddeffedddc````",
"`````cdcebbecdc`````",
"```````ebeebe```````",
"```````beggeb```````",
"```````bggggb```````",
"````````````````````",
"````````````````````",
"````````````````````",
"``````c`cd``````````",
"``````ddddc`````````",
"``````cddddee```````",
"``````cddddffdcd````",
"``````cddddaddddc```",
"```````dddfaddddc```",
"``````dddbfdddddd```",
"`````cdddfbdddc`c```",
"```c`cddbbfdddc`````",
"```ddddeffdddd``````",
"```dddbabbedd```````",
"``cdddaffbaddc``````",
"``cdddebbadddc``````",
"````cebffedddc``````",
"````ebebecdddd``````",
"```bbegebedc`c``````",
"````ggggeb``````````",
"```````gb```````````",
"````````````````````",
"`````````c`c````````",
"`````````ddd````````",
"````````cdddc```````",
"```````cddddde``````",
"```````cddddde``````",
"```````ddddaffd`c```",
"````ccddddffadddd```",
"``dcdddddfbbdddddc``",
"``cdddaedbfddddddc``",
"`cddddbbfbddddcdcd``",
"``dddafbfeddd`c`````",
"```cebbfadddd```````",
"`beebffabddc````````",
"bgebebeeddc`````````",
"``gggecddddc````````",
"```gebedddd`````````",
"```gbb``cc``````````",
"````````````````````",
"````````````````````",
"````````````````````",
"````````````````````",
"````````````dc``````",
"```````````cddcd````",
"``````````ccdddc````",
"`````c````dddddd````",
"```cddccddddddde````",
"```dddddddddddfe````",
"```cddddddfbfafdd```",
"```ddabaebbfbfaddc``",
"bbecefbfbfdddddddd``",
"`gebefbfbfddddddddc`",
"`ggebeabaedddddddc``",
"`ggebeddddd``cc`c```",
"``gebcddddcc````````",
"``bbe`dddd``````````",
"``````ccdc``````````",
"````````````````````",
"````````````````````",
"````````````````````",
"````````````````````",
"````````````````````",
"````````````````````",
"````````````````````",
"````````````````````",
"`````cdc``````cdc```",
"````cdddcc``ccdddc``",
"````dddddddddddddd``",
"`bbecddddddddddddc``",
"`gebeeabaeddddddd```",
"`ggebfbfbfbfbfafe```",
"`ggebfbfbfbfbfafe```",
"`gebeeabaeddddddd```",
"`bbecddddddddddddc``",
"````dddddddddddddd``",
"````cdddcc``ccdddc``",
"`````cdc``````cdc```",
"````````````````````",
"````````````````````",
"````````````````````",
"````````````````````",
"````````````````````",
"````````````````````",
"````````````````````",
"``````cd````````````",
"`````cddc```````````",
"``bbeddddcc`````````",
"`gebcddddd``````````",
"`ggeeeaddddd`c`cd```",
"`ggebfbbaeddddcddc``",
"gebbfbfbfddddddddc``",
"`beeeafbfbfbdddddd``",
"```cddbaebfbfafddc``",
"`cdddddddddfafed````",
"``cddddddddddde`````",
"````ddccddddddd`````",
"````c````cddddc`````",
"``````````cdddd`````",
"```````````cddc`````",
"````````````c```````",
"````````````````````",
"````````````````````",
"````````````````````",
"```gb``c`c``````````",
"```gebedddd`````````",
"`gggebcdddc`````````",
"`begebeedddc````````",
"`bebbffadddc````````",
"``ceebbbaddd````````",
"``dddaffbedddc``````",
"`cdddbabfbddddccd```",
"``cddddefbfddddddc``",
"``ddcddddfbfdddddc``",
"```c`cddddbfaddddd``",
"```````ddddaffd`c```",
"```````dddddee``````",
"```````ccdddd```````",
"````````ddddc```````",
"````````cdddd```````",
"`````````c`c````````",
"````````````````````",
"```````gb```````````",
"`````ggeb```````````",
"````bgggbe`c````````",
"````beeeecddc```````",
"````ebbbeddddd``````",
"```dceffbadddc``````",
"``cddeabfbddc```````",
"``cddddbfbaddc``````",
"```ddddabfedd```````",
"```ccddefbdddd``````",
"````cdddbffdddc`````",
"`````ddddbbdddcc````",
"```````dddffddddd```",
"``````cdddaadddddc``",
"``````cdddffddddc```",
"`````cdddddee`cd````",
"`````ddddd``````````",
"```````cddc`````````",
"````````c```````````"
};
