/* XPM */
static char * C1_xpm[] = {
"20 320 11 1",
" 	c None",
".	c #909090909090",
"X	c #B0B0B0B0B0B0",
"o	c #C1C1C1C1C1C1",
"O	c #A1A1A1A1A1A1",
"+	c #0000FFFF0000",
"@	c #E1E16F6F6F6F",
"#	c #C1C15F5F5F5F",
"$	c #A1A190905050",
"%	c #7F7F50503F3F",
"&	c #FFFF00000000",
"                    ",
"          .         ",
"         .X.        ",
"         XoX        ",
"         OXO        ",
"          O         ",
"          O         ",
"   .      O      .  ",
"   +      @      +  ",
"   +      #      +  ",
"   +O@$OX$@$XO$@O+  ",
"   .OO##$%@%$##OO.  ",
"   .  OO%@$@%OO  .  ",
"        O#%#O       ",
"         O#O        ",
"         @o@        ",
"         OoO        ",
"         X&X        ",
"         . .        ",
"                    ",
"                    ",
"                    ",
"             .      ",
"           .X.      ",
"           XoO      ",
"    .      OXO      ",
"    +      O.       ",
"   +       O        ",
"   +.     .@        ",
"  .OO@$   #         ",
"  . OO##X$@         ",
"     OO%@@$.     .  ",
"      O%#$@%O$  +   ",
"       X$#%###@O+   ",
"       #%#OOO.O+.   ",
"      .@o@     .    ",
"      OoX           ",
"     .X&O           ",
"       O.           ",
"                    ",
"                    ",
"                    ",
"                    ",
"      .             ",
"     +       .O.    ",
"    +        XoO    ",
"   ..@       XX.    ",
"    O#$     O       ",
"     O$O   @        ",
"     O##$$#         ",
"      O%%@$         ",
"      O@@%$         ",
"     @#%@%#O        ",
"    OOo#OO#$$   .   ",
"   .XoO@  OO#@ +    ",
"   O&XO     O.+     ",
"    O.       .      ",
"                    ",
"                    ",
"                    ",
"                    ",
"                    ",
"        .           ",
"     .++            ",
"    .+O             ",
"     O@             ",
"     .#$      OX..  ",
"     O#O     .XoX   ",
"     O#%.  @OOOX.   ",
"     O%@$@#.        ",
"    @##$@$          ",
" .OXo%$#@X          ",
" O&o@#X%%#          ",
"  XO.  OO#$         ",
"  .     OO@         ",
"         OO. +.     ",
"          O++       ",
"         ..         ",
"                    ",
"                    ",
"                    ",
"                    ",
"                    ",
"       ..+++.       ",
"        OO          ",
"        O@          ",
"       O#$          ",
"       O#O          ",
"      O%$X          ",
" .XO@O#@%$     OX.  ",
"  &oo#%$@@#@OOOXoX. ",
" .XO@O#@%$     OX.  ",
"      O%$X          ",
"       O#O          ",
"       O#$          ",
"        O@          ",
"        OO          ",
"       ..+++.       ",
"                    ",
"                    ",
"                    ",
"                    ",
"         ..         ",
"          O++       ",
"         OO. +.     ",
"  .     OO@         ",
"  XO.  OO#$         ",
" O&o@#X%%#          ",
" .OXo%$#@X          ",
"    @##$@$          ",
"     O%@$@#.        ",
"     O#%.  @OOOX.   ",
"     O#O     .XoX   ",
"     .#$      OO..  ",
"     O@             ",
"    .+O             ",
"     .++            ",
"        .           ",
"                    ",
"                    ",
"                    ",
"                    ",
"                    ",
"    O.       .      ",
"   O&XO     O.+     ",
"   .XoO@  OO#@ +    ",
"    OOo#OO#$$   .   ",
"     @#%@%#O        ",
"      O@@%$         ",
"      O%%@$         ",
"     O##$$#         ",
"     O$O   @        ",
"    O#$     O       ",
"   ..@       XX.    ",
"    +        XoO    ",
"     +       .O.    ",
"      .             ",
"                    ",
"                    ",
"                    ",
"                    ",
"       O.           ",
"     .X&O           ",
"      OoX           ",
"      .@o@     O    ",
"       #%#OOO.O+.   ",
"       X$#%###@O+   ",
"      O%#$@%O$  +   ",
"     OO%@@$.     .  ",
"  . OO##X$@         ",
"  .OO@$   #         ",
"   +.     .@        ",
"   +       O        ",
"    +      O.       ",
"    .      OXO      ",
"           XoX      ",
"           .X.      ",
"             .      ",
"                    ",
"                    ",
"                    ",
"        . .         ",
"        X&X         ",
"        OoO         ",
"        @o@         ",
"        O#O         ",
"       O#%#O        ",
"  .  OO%@$@%OO  .   ",
"  .OO##$%@%$##OO.   ",
"  +O@$OX$@$XO$@O+   ",
"  +      #      +   ",
"  +      @      +   ",
"  .      O      .   ",
"         O          ",
"         O          ",
"        OXO         ",
"        XoX         ",
"        .X.         ",
"         .          ",
"                    ",
"                    ",
"           .O       ",
"           O&X.     ",
"           XoO      ",
"    .     @o@.      ",
"   .+O.OOO#%#       ",
"   +O@###%#$X       ",
"   +  $O%@$#%O      ",
"  .     .$@@%OO     ",
"         @$X##OO .  ",
"         #   $@OO.  ",
"        @.     .+   ",
"        O       +   ",
"       .O      +    ",
"      OXO      .    ",
"      OoX           ",
"      .X.           ",
"      .             ",
"                    ",
"                    ",
"                    ",
"                    ",
"                    ",
"      .       .O    ",
"     +.O     OX&O   ",
"    + @#OO  @OoX.   ",
"   .   $$#OO#oOO    ",
"        O#%@%#@     ",
"         $%@@O      ",
"         $@%%O      ",
"         #$$##O     ",
"        @   O$O     ",
"       O     $#O    ",
"    .XX       @..   ",
"    OoX        +    ",
"    .O.       +     ",
"             .      ",
"                    ",
"                    ",
"                    ",
"                    ",
"                    ",
"         ..         ",
"       ++O          ",
"     .+ .OO         ",
"         @OO     .  ",
"         $#OO  .OX  ",
"          #%%X#@o&O ",
"          X@#$%oXO. ",
"          $@$##@    ",
"        .#@$@%O     ",
"   .XOOO@  .%#O     ",
"   XoX.     O#O     ",
"  ..XO      $#.     ",
"             @O     ",
"             O+O    ",
"            ++.     ",
"           .        ",
"                    ",
"                    ",
"                    ",
"                    ",
"       .+++..       ",
"          OO        ",
"          @O        ",
"          $#O       ",
"          O#O       ",
"          X$%O      ",
"  .XO     $%@#O@OX. ",
" .XoXOOO@#@@$%#oo&  ",
"  .XO     $%@#O@OX. ",
"          X$%O      ",
"          O#O       ",
"          $#O       ",
"          @O        ",
"          OO        ",
"       .+++..       ",
"                    ",
"                    ",
"                    ",
"                    ",
"                    ",
"           .        ",
"            ++.     ",
"             O+.    ",
"             @O     ",
"  ..OO      $#.     ",
"   XoX.     O#O     ",
"   .XOOO@  .%#O     ",
"        .#@$@%O     ",
"          $@$##@    ",
"          X@#$%oXO. ",
"          #%%X#@o&O ",
"         $#OO  .OX  ",
"         @OO     .  ",
"     .+ .OO         ",
"       ++O          ",
"         ..         ",
"                    ",
"                    ",
"                    ",
"                    ",
"                    ",
"             .      ",
"    .O.       +     ",
"    OoX        +    ",
"    .XX       @..   ",
"       O     $#O    ",
"        @   O$O     ",
"         #$$##O     ",
"         $@%%O      ",
"         $%@@O      ",
"        O#%@%#@     ",
"   .   $$#OO#oOO    ",
"    + @#OO  @OoX.   ",
"     +.O     OX&O   ",
"      .       .O    ",
"                    ",
"                    ",
"                    ",
"                    ",
"                    ",
"      .             ",
"      .X.           ",
"      XoX           ",
"      OXO      .    ",
"       .O      +    ",
"        O       +   ",
"        @.     .+   ",
"         #   $@OO.  ",
"         @$X##OO .  ",
"  .     .$@@%OO     ",
"   +  $O%@$#%O      ",
"   +O@###%#$X       ",
"   .+O.OOO#%#       ",
"    O     @o@.      ",
"           XoO      ",
"           O&X.     ",
"           .O       ",
"                    "};
