/* XPM */
static char *C2[] = {
/* width height ncolors chars_per_pixel */
"20 320 7 1",
/* colors */
"` c None",
"a c #900000",
"b c #C00000",
"c c #F0F000",
"d c #F00000",
"e c #A0A000",
"f c #606000",
/* pixels */
"````````````````````",
"`````````fef````````",
"```````fef`fef``````",
"````````fcecf```````",
"`````````fcf````````",
"`````````fef````````",
"`````````fef````````",
"`````````fcf````````",
"`````````fcf````````",
"`````````ece````````",
"```````e`ece`e``````",
"``````fefcccfef`````",
"`````f`ceacaec`f````",
"`````ecfebebefce````",
"````fef`bbfbb`fef```",
"````fcf``ddd``fcf```",
"````ef`````````fe```",
"````f```````````f```",
"````````````````````",
"````````````````````",
"````````````````````",
"``````````f``f``````",
"```````````efef`````",
"```````````fc`fe````",
"```````````fcecff```",
"```````````fef``````",
"```````````fef``````",
"``````````fcf```````",
"``````````fcf```````",
"``````fe`ecef```````",
"`````f`efece````````",
"```fecceaccc`e``````",
"```feffebcafef``````",
"``ecf``bbebec```````",
"``ff```dfbbefcf`````",
"````````dd``fe``````",
"````````````fef`````",
"````````````fcf`````",
"`````````````e``````",
"`````````````f``````",
"````````````````````",
"````````````````````",
"``````````````f`````",
"``````````````eff```",
"``````````````cf`f``",
"`````````````ffeff``",
"````````````ffcfcef`",
"```````````ffeff````",
"```f`fffe`efcff`````",
"``ffec`efeecff``````",
"`eecfffecccee```````",
"`ff`f`bbacce````````",
"``````bbeacfe```````",
"``````dfbbeef```````",
"```````dbbf`f```````",
"``````````fcf```````",
"`````````ffe````````",
"``````````cff```````",
"`````````fef````````",
"`````````fe`````````",
"````````````````````",
"````````````````````",
"````````````````````",
"````````````````````",
"````````````````f```",
"````````````````fe``",
"```ff`f`````````cff`",
"`feceec`fe````ffe`e`",
"```ffffce``fffeeccf`",
"``````eefceeccffffe`",
"``````bbacccff`````f",
"`````dbeccee````````",
"`````dfbbaf`````````",
"``````dbeeee````````",
"````````fc`f````````",
"````````fcf`````````",
"```````fee``````````",
"``````fcff``````````",
"``````fe````````````",
"````````````````````",
"````````````````````",
"````````````````````",
"````````````````````",
"````````````````````",
"```feff`````````````",
"````fceef```````````",
"`````ffc`f``````````",
"```````fcee```````f`",
"``````beef```````fe`",
"`````dbbaceefffffcff",
"`````dfecccccceece`e",
"`````dbbaceefffffcff",
"``````beef```````fe`",
"```````fcee```````f`",
"`````ffc`f``````````",
"````fceef```````````",
"```feff`````````````",
"````````````````````",
"````````````````````",
"````````````````````",
"````````````````````",
"````````````````````",
"``````fe````````````",
"``````fcff``````````",
"```````fee``````````",
"````````fcf`````````",
"````````fc`f````````",
"``````dbeeee````````",
"`````dfbbaf`````````",
"`````dbeccee````````",
"``````bbacccff`````f",
"``````eefceeccffffe`",
"```ffffce``fffeeccf`",
"`feceec`fe````ffe`e`",
"```ff`f`````````cff`",
"````````````````fe``",
"````````````````f```",
"````````````````````",
"````````````````````",
"````````````````````",
"````````````````````",
"`````````fe`````````",
"`````````fef````````",
"``````````cff```````",
"`````````ffe````````",
"``````````fcf```````",
"```````dbbf`f```````",
"``````dfbbeef```````",
"``````bbeacfe```````",
"`ff`f`bbacce````````",
"`eecfffecccee```````",
"``ffec`efeecff``````",
"```f`fffe`efcff`````",
"```````````ffeff````",
"````````````ffcfcef`",
"`````````````ffeff``",
"``````````````cf`f``",
"``````````````eff```",
"``````````````f`````",
"````````````````````",
"````````````````````",
"`````````````f``````",
"`````````````e``````",
"````````````fcf`````",
"````````````fef`````",
"````````dd``fe``````",
"``ff```dfbbefcf`````",
"``ecf``bbebec```````",
"```feffebcafef``````",
"```fecceaccc`e``````",
"`````f`efece````````",
"``````fe`ecef```````",
"``````````fcf```````",
"``````````fcf```````",
"```````````fef``````",
"```````````fef``````",
"```````````fcecff```",
"```````````fc`fe````",
"```````````efef`````",
"``````````f``f``````",
"````````````````````",
"````````````````````",
"````````````````````",
"````f```````````f```",
"````ef`````````fe```",
"````fcf``ddd``fcf```",
"````fef`bbfbb`fef```",
"`````ecfebebefce````",
"`````f`ceacaec`f````",
"``````fefcccfef`````",
"```````e`ece`e``````",
"`````````ece````````",
"`````````fcf````````",
"`````````fcf````````",
"`````````fef````````",
"`````````fef````````",
"`````````fcf````````",
"````````fcecf```````",
"```````fef`fef``````",
"`````````fef````````",
"````````````````````",
"```````f````````````",
"```````e````````````",
"``````fcf```````````",
"``````fef```````````",
"```````ef``dd```````",
"``````fcfebbfd```ff`",
"````````cebebb``fce`",
"```````fefacbeffef``",
"```````e`cccaeccef``",
"`````````ecefe`f````",
"````````fece`ef`````",
"````````fcf`````````",
"````````fcf`````````",
"```````fef``````````",
"```````fef``````````",
"````ffcecf``````````",
"`````ef`cf``````````",
"``````fefe``````````",
"```````f``f`````````",
"````````````````````",
"``````````ef````````",
"`````````fef````````",
"````````ffc`````````",
"`````````eff````````",
"````````fcf`````````",
"````````f`fbbd``````",
"````````feebbfd`````",
"````````efcaebb`````",
"`````````eccabb`f`ff",
"````````eecccefffcee",
"```````ffceefe`ceff`",
"``````ffcfe`efff`f``",
"`````ffeff``````````",
"``fecfcff```````````",
"```ffeff````````````",
"```f`fc`````````````",
"````ffe`````````````",
"``````f`````````````",
"````````````````````",
"````````````````````",
"````````````````````",
"`````````````ef`````",
"```````````ffcf`````",
"```````````eef``````",
"``````````fcf```````",
"`````````f`cf```````",
"`````````eeeebd`````",
"``````````fabbfd````",
"`````````eeccebd````",
"`f`````ffcccabb`````",
"``effffcceecfee`````",
"``fcceefff``ecffff``",
"`fe`eff````ef`ceecef",
"``ffc`````````f`ff``",
"```ef```````````````",
"````f```````````````",
"````````````````````",
"````````````````````",
"````````````````````",
"````````````````````",
"````````````````````",
"````````````````````",
"````````````````````",
"``````````````ffef``",
"````````````feecf```",
"```````````f`cff````",
"``f```````eecf``````",
"``ef```````feeb`````",
"`ffcfffffeecabbd````",
"`e`eceeccccccefd````",
"`ffcfffffeecabbd````",
"``ef```````feeb`````",
"``f```````eecf``````",
"```````````f`cff````",
"````````````feecf```",
"``````````````ffef``",
"````````````````````",
"````````````````````",
"````````````````````",
"````````````````````",
"````````````````````",
"````````````````````",
"````````````````````",
"````f```````````````",
"```ef```````````````",
"``ffc`````````f`ff``",
"`fe`eff````ef`ceecef",
"``fcceefff``ecffff``",
"``effffcceecfee`````",
"`f`````ffcccabb`````",
"`````````eeccebd````",
"``````````fabbfd````",
"`````````eeeebd`````",
"`````````f`cf```````",
"``````````fcf```````",
"```````````eef``````",
"```````````ffcf`````",
"`````````````ef`````",
"````````````````````",
"````````````````````",
"````````````````````",
"``````f`````````````",
"````ffe`````````````",
"```f`fc`````````````",
"```ffeff````````````",
"``fecfcff```````````",
"`````ffeff``````````",
"``````ffcfe`efff`f``",
"```````ffceefe`ceff`",
"````````eecccefffcee",
"`````````eccabb`f`ff",
"````````efcaebb`````",
"````````feebbfd`````",
"````````f`fbbd``````",
"````````fcf`````````",
"`````````eff````````",
"````````ffc`````````",
"`````````fef````````",
"``````````ef````````",
"````````````````````",
"```````f``f`````````",
"``````fefe``````````",
"`````ef`cf``````````",
"````ffcecf``````````",
"```````fef``````````",
"```````fef``````````",
"````````fcf`````````",
"````````fcf`````````",
"````````fece`ef`````",
"`````````ecefe`f````",
"```````e`cccaeccef``",
"```````fefacbeffef``",
"````````cebebb``fce`",
"``````fcfebbfd```ff`",
"```````ef``dd```````",
"``````fef```````````",
"``````fcf```````````",
"```````e````````````",
"```````f````````````"
};
