/* XPM */
static char *C3[] = {
/* width height ncolors chars_per_pixel */
"20 320 7 1",
/* colors */
"` c None",
"a c #909000",
"b c #C0C000",
"c c #F08000",
"d c #F0F000",
"e c #A05000",
"f c #603000",
/* pixels */
"````````````````````",
"````````e``e````````",
"````````e``e````````",
"```````fc``cf```````",
"```````ec``ce```````",
"```````eceece```````",
"`f`````feccef`````f`",
"`ef`````effe`````fe`",
"`cef````fccf````fec`",
"`ef`````effe`````fe`",
"`ec`````ecce````fce`",
"`efee```feef```eefe`",
"`fecceeee``eeeeccef`",
"``feeccfeccefcceef``",
"```eeeffcffcffeee```",
"````eefef``fefee````",
"`````eedbaabdee`````",
"``````ffddddff``````",
"````````````````````",
"````````````````````",
"````````````````````",
"````````````e```````",
"``````````fe``e`````",
"```f``````ec``e`````",
"```ef````ec```cf````",
"``cef````fceece`````",
"``ef`````eeccce`````",
"`eec`````fffef``````",
"`ffe`````ecce```````",
"``ece```effef``````f",
"`feecee`fcce````f`fe",
"``eeccee`eef`````ec`",
"```eeffec`e`````ffe`",
"```efefcfceeeeeece``",
"```eedf`fcffccccfe``",
"````ffba`fefeeefef``",
"`````dddabdfeee`````",
"````````dfee`e``````",
"``````````f`````````",
"````````````````````",
"````````````````````",
"``````f`````````````",
"`````cf````````e````",
"````efe``````fe`````",
"```ecf``````ec```e``",
"``fff``````fc```ee``",
"``feee`````ece`cc```",
"```ece````ffcccce```",
"``eeee```efcfeee````",
"``eeece`fcfffef`````",
"```efffeeecee```````",
"``eeffcc`efe````````",
"``fedfffcef`````````",
"```fba`fcee`````ffff",
"````daafcfce`ef`fce`",
"`````dbbefecceecee``",
"``````ddeeeeecfee```",
"```````feeeeeffe````",
"````````````````````",
"````````````````````",
"``````````f`````````",
"```````ecef`````````",
"`````feefe``````````",
"`````efc`f``````````",
"````fce`````````````",
"````eece`````eefcee`",
"```eeee``````fcc````",
"```eecce```feee`````",
"```efffe`eecfcce`ce`",
"``feefeefecfcfeccf``",
"``fdbfcc`ecffefee```",
"```da`fc`fee````````",
"```da`fcee``````````",
"````dbfffe``````````",
"````ddefcee`````````",
"````ffefecce``ff````",
"``````eeeecefcfeef``",
"```````e`eeefeec````",
"``````````ffe```````",
"````````````````````",
"````````````````````",
"````````feeecef`````",
"```````fefcfef``````",
"``````eece``f```````",
"`````eeece``````````",
"````eeece```````````",
"```feffce```````````",
"```fdeffe`````feef``",
"```dbfceefeefeecccee",
"```da`fc`ecfcfce````",
"```da`fc`ecfcfce````",
"```dbfceefeefeecccee",
"```fdeffe`````feef``",
"```feffce```````````",
"````eeece```````````",
"`````eeece``````````",
"``````eecef`f```````",
"```````fefcfef``````",
"````````feeecef`````",
"````````````````````",
"````````````````````",
"``````````f`fe``````",
"`````````eeefeec````",
"``````eeeeececfeef``",
"`````fefecce```ff```",
"````dfdefce`````````",
"````dbfffee`````````",
"````da`cee``````````",
"```da`ffc`fe````````",
"```fbfcc`ecfefefe```",
"``fedefeeecfcfeccef`",
"```efffe`feecfce`ce`",
"````eece```feece```e",
"```eeece`````fcc````",
"````eece``````eecee`",
"`````fce````````f```",
"`````efcf`f`````````",
"`````feefe``````````",
"````````ecf`````````",
"``````````ef````````",
"````````````````````",
"````````````````````",
"````````fe`ee`ff````",
"```````feeeeeeefe```",
"``````dbdffeecefce``",
"`````daafffceee`ffc`",
"````dba`fcfe`````eff",
"```fdbfffce`````````",
"```eeeccc`ef````````",
"```eeffeeeece```````",
"```eeeceffcfff``````",
"```eece``eefcfef````",
"```eec````effccce```",
"```fcee````eece`cf``",
"```ffef````fec```e``",
"```eec``````ecc```e`",
"````eeff`````ece````",
"`````ecf```````ee```",
"``````ef````````````",
"```````f````````````",
"````````````````````",
"````````````````````",
"``````````ff````````",
"````````dddeeee`````",
"`````fddaabefeeef```",
"`````fdb``fffceecef`",
"````eeefffcefcecefe`",
"```eefffccceee`e`ce`",
"````eecfe``f``````fc",
"```eeceeefeee````fee",
"``fecce``ecce``````f",
"``feee```effcf``````",
"``eff`````fcfe``````",
"```ec`````efcefe````",
"```eff````fecece````",
"```cef````ece`cf````",
"````e`````ec```c````",
"````f``````fc``e````",
"````````````e``e````",
"`````````````e``````",
"````````````````````",
"````````````````````",
"````````````````````",
"```````ffddddff`````",
"``````eedbaabdee````",
"`````eefef``fefee```",
"````eeeffcffcffeee``",
"```feeccfeccefcceef`",
"``fecceeee``eeeeccef",
"``efee```feef```eefe",
"``ecf````ecce`````ce",
"``ef`````effe`````fe",
"``cef````fccf````fec",
"``ef`````effe`````fe",
"``f`````feccef`````f",
"````````eceece``````",
"````````ec``ce``````",
"````````fc``cf``````",
"`````````e``e```````",
"`````````e``e```````",
"````````````````````",
"````````````````````",
"``````````f`````````",
"```````e`eefd```````",
"``````eeefdbaddd````",
"```fefeeefef`abff```",
"```efccccffcf`fdee``",
"```eceeeeeecfcfefe``",
"``eff`````e`ceffee``",
"``ce`````fee`eeccee`",
"`ef`f````eccf`eeceef",
"`f``````feffe```ece`",
"````````ecce`````eff",
"```````fefff`````ce`",
"``````ecccee`````fe`",
"``````eceecf````fec`",
"`````fc```ce````fe``",
"``````e``ce``````f``",
"``````e``ef`````````",
"````````e```````````",
"````````````````````",
"````````````````````",
"````````````````````",
"`````effeeeeef``````",
"````eefceeeeedd`````",
"```eeceeccefebbd````",
"``ecf`fe`ecfcfaad```",
"`ffff`````eecf`abf``",
"``````````fecfffdef`",
"`````````efe`ccffee`",
"````````eeceeefffe``",
"``````fefffcf`eceee`",
"`````eeefcfe```eeee`",
"````eccccff````ece``",
"````cc`ece`````eeef`",
"```ee```cf``````fff`",
"```e```ce``````fce``",
"``````ef``````efe```",
"`````e````````fc````",
"``````````````f`````",
"````````````````````",
"````````````````````",
"````````eff`````````",
"`````ceefeee`e``````",
"```feefcfeceeee`````",
"`````ff``eccefeff```",
"``````````eecfedd```",
"```````````efffbd```",
"```````````eecf`ad``",
"`````````eef`cf`ad``",
"````eefeffce`ccfbdf`",
"```fccefcfcefeefeef`",
"``ec`eccfcee`efffe``",
"`e````eeef```eccee``",
"`````ccf``````eeee``",
"``eecfee`````ecee```",
"``````````````ecf```",
"```````````f`cfe````",
"```````````efeef````",
"``````````fece``````",
"``````````f`````````",
"````````````````````",
"``````feceeef```````",
"```````fefcfef``````",
"````````f`fecee`````",
"```````````eceee````",
"````````````eceee```",
"````````````ecffef``",
"```feef`````effedf``",
"`eeccceefeefeecfbd``",
"`````ecfcfce`cf`ad``",
"`````ecfcfce`cf`ad``",
"`eeccceefeefeecfbd``",
"```feef`````effedf``",
"````````````ecffef``",
"````````````eceee```",
"```````````eceee````",
"````````f``ecee`````",
"```````fefcfef``````",
"``````feceeef```````",
"````````````````````",
"`````````fe`````````",
"``````````fce```````",
"```````````efeef````",
"``````````f`fcfe````",
"````f````````ecf````",
"``eecee``````ecee```",
"`````ccf`````eceee``",
"`e```eceef```ecee```",
"``ec`ecfceef`efffe``",
"``feccefcfceeefedef`",
"````efefefce`ccfbf``",
"`````````ef`cff`ad``",
"```````````eec`ad```",
"``````````eefffbd```",
"``````````ecfedfd```",
"````ff```eccefef````",
"```feefceceeeee`````",
"`````ceefeee````````",
"```````ef`f`````````",
"````````````````````",
"`````````````f``````",
"`````````````fe`````",
"````ee```````fce````",
"`````ece`````ffee```",
"``e```cce``````cee``",
"```e```cef````feff``",
"```fc`ecee````eecf``",
"````ecccffe````cee``",
"`````fefcfee``ecee``",
"```````fffcffeceee``",
"````````eceeeeffee``",
"`````````fe`ccceee``",
"``````````ecfffbdf``",
"`ffe`````efcf`abd```",
"``cff`eeecfffaad````",
"```ecfeceeffdbd`````",
"````efeeeeeeef``````",
"`````ff`ee`ef```````",
"````````````````````",
"````````````````````",
"```````e````````````",
"`````e``e```````````",
"`````e``cf``````f```",
"`````c```ce`````e```",
"`````fc`ece````fec``",
"`````ececef````ffe``",
"`````efecfe`````ce``",
"```````efcf`````ffe`",
"```````fcffe```eeef`",
"ff``````ecce``eccef`",
"`eef````eeefeeecee``",
"`cf``````f``efcee```",
"`eec`e`eeecccfffee``",
"``efececfecfffeee```",
"``feceecfff``bdf````",
"````feeefebaaddf````",
"``````eeeeddd```````",
"`````````ff`````````",
"````````````````````"
};
