/* XPM */
static char *noname[] = {
/* width height ncolors chars_per_pixel */
"20 320 11 1",
/* colors */
"` c None",
"a c #FFFFFFFF0000",
"b c #A8A800000000",
"c c #00000000AFAF",
"d c #0000E5E50000",
"e c #6E6E00000000",
"f c #00000000FFFF",
"g c #999995953E3E",
"h c #000081810000",
"i c #0000FFFFFFFF",
"j c #FFFF00000000",
/* pixels */
"````````````````````",
"````````````````````",
"````````````````````",
"```````ic``ci```````",
"```````ci``ic```````",
"````````i``i````````",
"````ag``i``i```a````",
"````gag`bjjb``a`````",
"`````gag`jj``a``````",
"``````ge`jj`e```````",
"``````cebjjbec``````",
"`````cfcbjjbcfc`````",
"````cfc``jj``cfc````",
"````fc`hd``dh`cf````",
"```````dh``hd```````",
"```````d````d```````",
"```````d````d```````",
"````````````````````",
"````````````````````",
"````````````````````",
"````````````````````",
"````````````````````",
"``````````i`````````",
"``````````cc````````",
"``````ag``ii``ci````",
"`````ga``i``iic`````",
"``````gg`b``i```````",
"```````ag`jjb```````",
"``````cge`jj````a```",
"````ccfebjjj``aa````",
"```ffccbjjbee```````",
"````c```jjbcc```````",
"``````hd`j``fc``````",
"`````ddh``dhcf``````",
"`````d````hd`cc`````",
"`````````d```f``````",
"`````````d``````````",
"````````````````````",
"````````````````````",
"````````````````````",
"````````````````````",
"````````````````````",
"````````a````i``````",
"````````gg``cic`````",
"```````gag``i```````",
"````````ag`i````c```",
"````cc`ge`bj``ici```",
"```fcffce`jjjii`````",
"``````ccbbjj`b``````",
"`````h``jjj`````````",
"`````dd`jjbbea`aa```",
"```ddh``j`ce````````",
"````````dh`fc```````",
"```````hd`cc````````",
"````````d`cfc```````",
"```````d```f````````",
"````````````````````",
"````````````````````",
"````````````````````",
"````````````````````",
"````````````````````",
"````````````````````",
"````````````````````",
"``````````gag```````",
"```````````ag``ci```",
"`````fc```ga```ic```",
"`````cfccgegbii`````",
"```````cfeb``j``````",
"``````h`cbjjjj``ic``",
"```dddd`jjjjjbiici``",
"``````h``jjb````````",
"````````d`bee```````",
"```````hh`cc`aa`````",
"``````ddd`cf````a```",
"`````````cfc````````",
"`````````fc`````````",
"````````````````````",
"````````````````````",
"````````````````````",
"````````````````````",
"````````````````````",
"````````````````````",
"````````````````````",
"````````````````````",
"```````fc````ga`````",
"```````cfc``gag`````",
"````````cfcgag``````",
"````dddh`ceeg```ci``",
"``````hd`bb``biiic``",
"````````jjjjjj``````",
"````````jjjjjj``````",
"``````hd`bb``biiic``",
"````dddh`cee````ci``",
"````````cfc`a```````",
"```````cfc```a``````",
"```````fc`````a`````",
"````````````````````",
"````````````````````",
"````````````````````",
"````````````````````",
"````````````````````",
"````````````````````",
"````````````````````",
"````````````````````",
"`````````fc`````````",
"`````````cfc````````",
"``````ddd`cf````a```",
"```````hh`cc`aa`````",
"````````d`bee```````",
"``````h``jjb````````",
"```dddd`jjjjjbiici``",
"``````h`cbjjjj``ic``",
"```````cfeb``j``````",
"`````cfccgegbii`````",
"`````fc```ga```ic```",
"```````````ag``ci```",
"``````````gag```````",
"````````````````````",
"````````````````````",
"````````````````````",
"````````````````````",
"````````````````````",
"````````````````````",
"````````````````````",
"```````d```f````````",
"````````d`cfc```````",
"```````hd`cc````````",
"````````dh`fc```````",
"```ddh``j`ce````````",
"`````dd`jjbbea`aa```",
"`````h``jjj`````````",
"``````ccbbjj`b``````",
"```fcffce`jjjii`````",
"````cc`ge`bj``ici```",
"````````ag`i````c```",
"```````gag``i```````",
"````````gg``cic`````",
"````````a````i``````",
"````````````````````",
"````````````````````",
"````````````````````",
"````````````````````",
"````````````````````",
"`````````d``````````",
"`````````d```f``````",
"`````d````hd`cc`````",
"`````ddh``dhcf``````",
"``````hd`j``fc``````",
"````c```jjbcc```````",
"```ffccbjjbee```````",
"````ccfebjjj``aa````",
"``````cge`jj````a```",
"```````ag`jjb```````",
"``````gg`b``i```````",
"`````ga``i``iic`````",
"``````ag``ii``ci````",
"``````````cc````````",
"``````````i`````````",
"````````````````````",
"````````````````````",
"````````````````````",
"````````````````````",
"````````````````````",
"```````d````d```````",
"```````d````d```````",
"```````dh``hd```````",
"````fc`hd``dh`cf````",
"````cfc``jj``cfc````",
"`````cfcbjjbcfc`````",
"``````cebjjbec``````",
"``````ge`jj`e```````",
"`````gag`jj``a``````",
"````gag`bjjb``a`````",
"````ag``i``i```a````",
"````````i``i````````",
"```````ci``ic```````",
"```````ic``ci```````",
"````````````````````",
"````````````````````",
"````````````````````",
"````````````````````",
"````````````````````",
"````````````````````",
"`````````d``````````",
"`````````d``````````",
"`````fc``d``````````",
"`````cf`hdh``d``````",
"``````cc````hd``````",
"``````cfcj`dhd``````",
"``````gebjj```cf````",
"```g`gebjjjbccfc````",
"```aaag`jjbecfc`````",
"```gg`b`jj`e````````",
"``````ijjb``a```````",
"``````i``i``a```````",
"````ci```i``````````",
"````ic``ic```a``````",
"````````ci``````````",
"````````````````````",
"````````````````````",
"````````````````````",
"````````````````````",
"````````````````````",
"```````f```d````````",
"``````cc```d````````",
"``````cf`hdh````````",
"```````fc`d`````````",
"````g`gcc````h`d````",
"``agaaeebjjjddd`````",
"```ggg``bjj`h```````",
"``````bjjjbc`cc`````",
"`````ijjj`befcff````",
"```ci``j``e`c`c`````",
"``ii```ib`a`````````",
"```c``ii````````````",
"``````c```a`````````",
"`````ci```a`````````",
"````````````````````",
"````````````````````",
"````````````````````",
"````````````````````",
"````````````````````",
"````````````````````",
"``````````f`````````",
"`````````cfc````````",
"`````g```cc``dd`````",
"````aag`cfc`hd``````",
"````g`gageb`dh``````",
"```````gebjj````````",
"`````ib``jjjj``dd```",
"``ici``jjjbb`dh`````",
"```ci``jjjec`hd`````",
"`````iib``ecfc``````",
"`````i``````cfcf````",
"````cc```a````c`````",
"````i````a``````````",
"````````a```````````",
"````````````````````",
"````````````````````",
"````````````````````",
"````````````````````",
"````````````````````",
"````````````````````",
"````````````````````",
"````````````````````",
"``````a`````cf``````",
"```````a```cfc``````",
"````````a`cfc```````",
"```ic````eec`hddd```",
"```ciiib``bb`dh`````",
"```````jjjjjj```````",
"```````jjjjjj```````",
"```ciiib``bb`dh`````",
"```ic```geec`hddd```",
"```````gagcfc```````",
"``````gag``cfc``````",
"``````ag````cf``````",
"````````````````````",
"````````````````````",
"````````````````````",
"````````````````````",
"````````````````````",
"````````````````````",
"````````````````````",
"```````a````````````",
"````````````````````",
"````i```a```````````",
"```cc```a````c``````",
"````iii``ecfcff`````",
"```````b``ec`cc`````",
"``c```jjjbb`h```````",
"``iiiijjjjjjdhdd````",
"```c``b``jjj````d```",
"``````gebb``````````",
"````ggagec`dh```````",
"````aag`cfchdd``````",
"````g```cf```d``````",
"`````````cc`````````",
"``````````f`````````",
"````````````````````",
"````````````````````",
"````````````````````",
"````````````````````",
"````````````````````",
"``````i```a`````````",
"`````cc`````````````",
"``````ii``a`````````",
"``ic```i``a`````````",
"``cii``b`e`cc```````",
"`````ijjj`beffcf````",
"`````b`jjjbcc`c`````",
"```gg`g`jjj``h``````",
"``aagaeebjj`ddd`````",
"```g``gccbj``h`d````",
"```````f``d`````````",
"``````cc`hh`````````",
"``````cfc`dd````````",
"```````f```d````````",
"````````````````````",
"````````````````````",
"````````````````````",
"````````````````````",
"````````````````````",
"````````ci``````````",
"````````ic``````````",
"````ic``i````a``````",
"````ci```i``a```````",
"`````ii`jb`a````````",
"````g``bjj``````````",
"```aag``jj`ec```````",
"```ggag`jjbecfcc````",
"`````gebjjjb`cff````",
"`````cecbjj`h`c`````",
"``````cf````dd``````",
"`````cfchd``hd``````",
"`````fc`dh````d`````",
"````````d```````````",
"`````````d``````````",
"````````````````````",
"````````````````````"
};
