/* XPM */
static char * C3_xpm[] = {
"20 320 12 1",
" 	c None",
".	c #C1C1C1C1C1C1",
"X	c #909090909090",
"o	c #A1A1A1A1A1A1",
"O	c #B0B0B0B0B0B0",
"+	c #E1E16F6F6F6F",
"@	c #7F7F50503F3F",
"#	c #606000000000",
"$	c #0000FFFF0000",
"%	c #A1A190905050",
"&	c #C1C15F5F5F5F",
"*	c #FFFF00000000",
"                    ",
"                    ",
"   .    XooX    .   ",
"   X   XOOOOX   X   ",
"   X  XOO++OOX  X   ",
"   X +@#.@@.#@+ X   ",
"   $ +%%#%%#%%+ $   ",
"   $oO+&%++%&+Oo$   ",
"   $oOO+&&&&+OOo$   ",
"   $oX  &@@&  Xo$   ",
"   X     %%     X   ",
"   X  X o&&o X  X   ",
"      Xo+..+oX      ",
"      $oO..Oo$      ",
"      $  **  $      ",
"      $      $      ",
"      X      X      ",
"      X      X      ",
"                    ",
"                    ",
"                    ",
"      .             ",
"      o             ",
"     o   XOooX      ",
"     $ +XOO&OX      ",
"    $ +%#.+++OX     ",
"    $oO+%#@@.OX   . ",
"   $oOO+&%&&##@&  o ",
"   X X +&&+&%%%+ o  ",
"  X     &&&&&+O  $  ",
"     X  &@o++OOo$   ",
"     Xoo%%   Xoo$   ",
"    $oo+.&o   o$    ",
"    $ O..+ooX  X    ",
"   $   **OoX  X     ",
"   X       $        ",
"          $         ",
"          $         ",
"         X          ",
"                    ",
"          .         ",
"         X          ",
"        X           ",
"       $ +          ",
"      $o+&@OXXo     ",
"     $oO+%#oO+oo    ",
"    X XO+&%#&&+X    ",
"        o&%&@&OX    ",
"         &+&&#oO    ",
"     X   @&+%%#@   .",
"    $ooo%%@&&&%&+ X ",
"   $ o+.&%  o+++ X  ",
"  X   ...o   OOo$   ",
" X   **.+o   Xo$    ",
"      * ooX   $     ",
"         $   X      ",
"        $           ",
"       X            ",
"      X             ",
"                    ",
"                    ",
"            o.      ",
"          $o        ",
"        $$          ",
"      X$oo +&       ",
"     X ooOO%@XX     ",
"        XO+%#OOXX   ",
"      X  +&%#.+Oo   ",
"    $Xo  +&&&@+&o   ",
"  $$ ooo o&+&@+OO   ",
" X   O+&%@&&%#.OX   ",
"     *..%&&&&%#X    ",
"     *.+o  +++%+    ",
"      Ooo   OO+  o. ",
"       oXX XOo $o   ",
"      $$    o$$     ",
"    X$     X$       ",
"          X         ",
"                    ",
"                    ",
"                    ",
"                    ",
"                    ",
"        XX$$$$XXX.  ",
"          ooo       ",
"          XOO++     ",
"  XX$$$XX  O+%@o    ",
"      oo   +&%#OX   ",
"      O+o &&%#.OOX  ",
"     *..&%@&+%@+Oo  ",
"     *..&%@&+%@+Oo  ",
"      O+o &&%#.OOX  ",
"      oo   +&%#OX   ",
"  XX$$$XX  O+%@X    ",
"          XOO++     ",
"          ooo       ",
"        XX$$$XXX..  ",
"                    ",
"                    ",
"                    ",
"                    ",
"                    ",
"          X         ",
"    X$     X$       ",
"      $$    o$$     ",
"       oXX XOo $o   ",
"      Ooo   OO+  o. ",
"     *.+o  +++%+    ",
"     *..%&&&&%#X    ",
" X   O+&%@&&%#.OX   ",
"  $$ ooo o&+&@+OO   ",
"    $Xo  +&&&@+&o   ",
"      X  +&%#.+Oo   ",
"        XO+%#OOXX   ",
"     X ooOO%@XX     ",
"      X$oo +&       ",
"        $$          ",
"          $o        ",
"            o.      ",
"                    ",
"                    ",
"      X             ",
"       X            ",
"        $           ",
"         $   X      ",
"      * ooX   $     ",
" X   **.+o   Xo$    ",
"  X   ...o   OOo$   ",
"   $ o+.&%  o+++ X  ",
"    $ooo%%@&&&%&+ X ",
"     X   @&+%%#@   .",
"         &+&&#oO    ",
"        o&%&@&OX    ",
"    X XO+&%#&&+X    ",
"     $oO+%#oO+oo    ",
"      $o+&@OXXo     ",
"       $ +          ",
"        X           ",
"         X          ",
"          .         ",
"                    ",
"         X          ",
"          $         ",
"          $         ",
"   X       $        ",
"   $   **OoX  X     ",
"    $ O..+ooX  X    ",
"    $oo+.&o   o$    ",
"     Xoo%%   Xoo$   ",
"     X  &@o++OOo$   ",
"  X     &&&&&+O  $  ",
"   X X +&&+&%%%+ o  ",
"   $oOO+&%&&##@&  o ",
"    $oO+%#@@.OX   . ",
"    $ +%#.+++OX     ",
"     $ +XOO&OX      ",
"     o   XOooX      ",
"      o             ",
"      .             ",
"                    ",
"                    ",
"                    ",
"      X      X      ",
"      X      X      ",
"      $      $      ",
"      $  **  $      ",
"      $oO..Oo$      ",
"      Xo+..+oX      ",
"   X  X o&&o X  X   ",
"   X     %%     X   ",
"   $oX  &@@&  Xo$   ",
"   $oOO+&&&&+OOo$   ",
"   $oO+&%++%&+Oo$   ",
"   X +%%#%%#%%+ $   ",
"   X +@#.@@.#@+ X   ",
"   X  XOO++OOo  X   ",
"   .   XOOOOX   X   ",
"   .    XooX    .   ",
"                    ",
"                    ",
"                    ",
"          X         ",
"         $          ",
"         $          ",
"        $       X   ",
"     X  XoO**   $   ",
"    X  Xoo+..O $    ",
"    $o   o&.+oo$    ",
"   $ooX   %%ooX     ",
"   $oOO++o@&  X     ",
"  $  O+&&&&&     X  ",
"  o +%%%&+&&+ X X   ",
" o  &@##&&%&+OOo$   ",
" .   XO.@@#%+Oo$    ",
"     XO+++.#%+ $    ",
"      XO&OOX+ $     ",
"      XooOX   o     ",
"             o      ",
"             .      ",
"                    ",
"                    ",
"             X      ",
"            X       ",
"           $        ",
"      X   $         ",
"     $   Xoo *      ",
"    $oX   o+.**   X ",
"   $oOO   o...   X  ",
"  X +++o  %&.+o $   ",
" X +&%&&&@%%ooo$    ",
".   @#%%+&@   X     ",
"    Oo#&&+&         ",
"    XO&@&%&o        ",
"    X+&&#%&+OX X    ",
"    oo+Oo#%+Oo$     ",
"     oXXO@&+o$      ",
"          + $       ",
"           X        ",
"          X         ",
"         .          ",
"                    ",
"                    ",
"         X          ",
"       $X     $X    ",
"     $$o    $$      ",
"   o$ oOX XXo       ",
" .o  +OO   ooO      ",
"    +%+++  o+.*     ",
"    X#%&&&&%..*     ",
"   XO.#%&&@%&+O   X ",
"   OO+@&+&o ooo $$  ",
"   o&+@&&&+  oX$    ",
"   oO+.#%&+  X      ",
"   XXOO#%+OX        ",
"     XX@%OOoo X     ",
"       &+ oo$X      ",
"          $$        ",
"        o$          ",
"      .o            ",
"                    ",
"                    ",
"                    ",
"                    ",
"  ..XXX$$$XX        ",
"       ooo          ",
"     ++OOX          ",
"    X@%+O  XX$$$XX  ",
"   XO#%&+   oo      ",
"  XOO.#%&& o+O      ",
"  oO+@%+&@%&..*     ",
"  oO+@%+&@%&..*     ",
"  XOO.#%&& o+O      ",
"   XO#%&+   oo      ",
"    o@%+O  XX$$$XX  ",
"     ++OOX          ",
"       ooo          ",
"  .XXX$$$$XX        ",
"                    ",
"                    ",
"                    ",
"                    ",
"      .o            ",
"        o$          ",
"          $$        ",
"       &+ oo$X      ",
"     XX@%OOoo X     ",
"   XXOO#%+OX        ",
"   oO+.#%&+  X      ",
"   o&+@&&&+  oX$    ",
"   OO+@&+&o ooo $$  ",
"   XO.#%&&@%&+O   X ",
"    X#%&&&&%..*     ",
"    +%+++  o+.*     ",
" .o  +OO   ooO      ",
"   o$ oOX XXo       ",
"     $$o    $$      ",
"       $X     $X    ",
"         X          ",
"                    ",
"                    ",
"         .          ",
"          X         ",
"           X        ",
"          + $       ",
"     oXXO@&+o$      ",
"    oo+Oo#%+Oo$     ",
"    X+&&#%&+OX X    ",
"    XO&@&%&o        ",
"    Oo#&&+&         ",
".   @#%%+&@   X     ",
" X +&%&&&@%%ooo$    ",
"  X +++o  %&.+o $   ",
"   $oOO   o...   X  ",
"    $oX   o+.**   X ",
"     $   Xoo *      ",
"      X   $         ",
"           $        ",
"            X       ",
"             X      ",
"                    ",
"                    ",
"             .      ",
"             o      ",
"      XooOX   o     ",
"      XO&OOX+ $     ",
"     XO+++.#%+ $    ",
" .   XO.@@#%+Oo$    ",
" o  &@##&&%&+OOo$   ",
"  o +%%%&+&&+ X X   ",
"  $  O+&&&&&     X  ",
"   $oOO++o@&  X     ",
"   $ooX   %%ooX     ",
"    $o   o&.+oo$    ",
"    X  Xoo+..O $    ",
"     X  XoO**   $   ",
"        $       X   ",
"         $          ",
"         $          ",
"          X         ",
"                    "};
