/* XPM */
static char *noname[] = {
/* width height ncolors chars_per_pixel */
"20 320 5 1",
/* colors */
"` c None",
"a c #CFCFC9C95454",
"b c #00000000FFFF",
"c c #999995953E3E",
"d c #FFFFF9F96868",
/* pixels */
"````````````````````",
"``````````c`````````",
"`````````cac````````",
"````````cadac```````",
"```````cadcdac``````",
"```````cac`cac``````",
"```````cac`cac``````",
"``````caddcddac`````",
"`````cadddddddac````",
"`````cadddddddac````",
"````ccadddcdddacc```",
"```caadddcbcdddaac``",
"``caaaaacbbbcaaaaac`",
"```ccccccbbbcccccc``",
"``````````b`````````",
"````````````````````",
"````````````````````",
"````````````````````",
"````````````````````",
"````````````````````",
"````````````````````",
"`````````````c``````",
"````````````ca``````",
"``````````ccadc`````",
"`````````caadcac````",
"````````cac`cda`````",
"``````ccadc`cacc````",
"````c`cadddcdac`````",
"```cacaadddddda`````",
"``caaadddddddddc````",
"``ccaaddccddddac````",
"````ccacbbcddaac````",
"``````ccbbbcddcc````",
"`````````bbcaaaac```",
"`````````b``ccaaa```",
"`````````````cccc```",
"````````````````````",
"````````````````````",
"````````````````````",
"````````````````````",
"````````````````````",
"````````````````````",
"````````````````````",
"````````````caccc```",
"```````c`cccadaac```",
"```ccaccadaacccda```",
"``caaacadddd``dac```",
"```ccadaddddcccac```",
"`````cadddddddacc```",
"`````caccdcddda`````",
"``````cbbbcdddac````",
"```````bbbdddac`````",
"```````bbccddac`````",
"`````````cadac``````",
"``````````caaac`````",
"```````````ccac`````",
"````````````cac`````",
"````````````````````",
"````````````````````",
"````````````````````",
"````````````````````",
"````````````````````",
"````````````````````",
"`````c``````````````",
"`````cacc```c``c````",
"`````caacccaaccac```",
"`````caaaadddaadacc`",
"``````caddddddcccda`",
"``````cadddddc``dac`",
"``````ccbccdddccac``",
"```````bbbbddddaac``",
"```````bbbcdddacc```",
"````````ccddddc`````",
"`````````cadaaa`````",
"`````````cadccc`````",
"`````````caac```````",
"``````````caa```````",
"``````````cac```````",
"```````````c````````",
"````````````````````",
"````````````````````",
"````````````````````",
"````````c```````````",
"```````cac``````````",
"```````caac`````````",
"```````caaccc```````",
"```````cadaaac``````",
"```````caddddaccc```",
"```````ccdddddaaac``",
"```````bbcddddccdac`",
"``````bbbbcddc``cdac",
"```````bbcddddccdac`",
"```````ccdddddaaac``",
"```````caddddaccc```",
"```````cadaaac``````",
"```````caaccc```````",
"```````caac`````````",
"```````cac``````````",
"````````c```````````",
"````````````````````",
"````````````````````",
"```````````c````````",
"``````````cac```````",
"``````````caa```````",
"`````````caac```````",
"`````````cadccc`````",
"`````````cadaaa`````",
"````````ccddddc`````",
"```````bbbcdddacc```",
"```````bbbbddddaac``",
"``````ccbccdddccac``",
"``````cadddddc``dac`",
"``````caddddddcccda`",
"`````caaaadddaadacc`",
"`````caacccaaccac```",
"`````cacc```c``c````",
"`````c``````````````",
"````````````````````",
"````````````````````",
"````````````````````",
"````````````````````",
"````````````````````",
"````````````````````",
"````````````cac`````",
"```````````ccac`````",
"``````````caaac`````",
"`````````cadac``````",
"```````bbccddac`````",
"```````bbbdddac`````",
"``````cbbbcdddac````",
"`````caccdcddda`````",
"`````cadddddddacc```",
"```ccadaddddcccac```",
"``caaacadddd``dac```",
"```ccaccadaacccda```",
"```````c`cccadaac```",
"````````````caccc```",
"````````````````````",
"````````````````````",
"````````````````````",
"````````````````````",
"````````````````````",
"````````````````````",
"````````````````````",
"`````````````cccc```",
"`````````b``ccaaa```",
"`````````bbcaaaac```",
"``````ccbbbcddcc````",
"````ccacbbcddaac````",
"``ccaaddccddddac````",
"``caaadddddddddc````",
"```cacaadddddda`````",
"````c`cadddcdac`````",
"``````ccadc`cacc````",
"````````cac`cda`````",
"`````````caadcac````",
"``````````ccadc`````",
"````````````ca``````",
"`````````````c``````",
"````````````````````",
"````````````````````",
"````````````````````",
"````````````````````",
"````````````````````",
"````````````````````",
"``````````b`````````",
"```ccccccbbbcccccc``",
"``caaaaacbbbcaaaaac`",
"```caadddcbcdddaac``",
"````ccadddcdddacc```",
"`````cadddddddac````",
"`````cadddddddac````",
"``````caddcddac`````",
"```````cac`cac``````",
"```````cac`cac``````",
"```````cadcdac``````",
"````````cadac```````",
"`````````cac````````",
"``````````c`````````",
"````````````````````",
"````````````````````",
"````````````````````",
"````````````````````",
"````````````````````",
"````````````````````",
"```cccc`````````````",
"````aaaccc``````````",
"````caaaacbb````````",
"````ccaddbbbc```````",
"`````caddcbbcccc````",
"`````cdddcbcdaaacc``",
"`````adddddddddaaac`",
"````cadddddddaccac``",
"`````cadcddddac`````",
"`````cac`cdacac`````",
"````cadc`cac````````",
"`````cacdaac````````",
"``````cdacc`````````",
"``````cac```````````",
"````````````````````",
"````````````````````",
"````````````````````",
"``````c`````````````",
"`````cac````````````",
"`````cac````````````",
"`````aaacc``````````",
"`````ccdaac`````````",
"````ccaadcbbb```````",
"`````adddcbbb```````",
"````cdddddbbcc``````",
"````cadddccdcac`````",
"````caddddddddac````",
"```cac`cdddddaacc```",
"```adc`cdddaacaaa```",
"```cacdcaaacc`ccc```",
"```cadaac`c`````````",
"```ccaccc```````````",
"````````````````````",
"````````````````````",
"````````````````````",
"````````````````````",
"````````````````````",
"`````````cc`````````",
"````````cac`````````",
"```````caaac````````",
"````````caac````````",
"``````ccaddac```````",
"``````caaddcc```````",
"`````cadddcbb```````",
"````caddddcbbbb`````",
"```caccddddcbb``````",
"```ca``cddddcc``````",
"``cadccddddddac`````",
"`cadcdaadddadacc````",
"```caaccadaacaac````",
"````c`c``ccccaac````",
"`````````````cac````",
"````````````````````",
"````````````````````",
"````````````````````",
"````````````````````",
"````````````````````",
"````````````c```````",
"```````````cac``````",
"``````````caac``````",
"````````cccaac``````",
"```````caaadac``````",
"````cccaddddac``````",
"```caaadddddcc``````",
"``cadccddddcbb``````",
"`cadc``cddcbbbb`````",
"``cadccddddcbb``````",
"```caaadddddcc``````",
"````cccaddddac``````",
"```````caaadac``````",
"````````cccaac``````",
"``````````caac``````",
"```````````cac``````",
"````````````c```````",
"````````````````````",
"````````````````````",
"````````````````````",
"````````````````````",
"````````````````````",
"``````````````c`````",
"`````````c```ca`````",
"````cccccaaccaac````",
"``caaaaaddacaac`````",
"`caddccddddddac`````",
"``cac``dddddcac`````",
"``cdcccdddcbcc``````",
"```aaadddcbbb```````",
"```cccddddcbbb``````",
"`````addddcb````````",
"`````caaddac````````",
"``````ccadac````````",
"```````caac`````````",
"```````caac`````````",
"````````cac`````````",
"````````cc``````````",
"````````````````````",
"````````````````````",
"````````````````````",
"````````````````````",
"```cc`ccc```````````",
"```adaaac``c````````",
"```cacdcaacac`ccc```",
"```cdc`cdddaacaac```",
"``caac`ddddddaac````",
"````cadcdddddaac````",
"````cddddccdacc`````",
"````caddddbbcc``````",
"````cadddcbbb```````",
"`````caaddbbb```````",
"`````ccdacc`````````",
"`````aaacc``````````",
"`````caac```````````",
"`````acc````````````",
"`````c``````````````",
"````````````````````",
"````````````````````",
"````````````````````",
"``````cc````````````",
"``````caac``````````",
"``````addac`````````",
"`````cdccacc````````",
"````cac``caac```````",
"````caaccdddac``````",
"``````cddddddacc`c``",
"`````caddddddacaaac`",
"````cadddcdddddaac``",
"````cadddcbccaacc```",
"````cadddbbbccc`````",
"````caadacbbb```````",
"````caaacc`b````````",
"```caccc````````````",
"````c```````````````",
"````````````````````",
"````````````````````",
"````````````````````"
};
