/* XPM */
static char *noname[] = {
/* width height ncolors chars_per_pixel */
"20 320 6 1",
/* colors */
"` c None",
"a c #F0F0F0",
"b c #00F000",
"c c #00A000",
"d c #006000",
"e c #A05020",
/* pixels */
"````````````````````",
"````````aaaaa```````",
"````````````````````",
"````````cbbbc```````",
"````````dcccd```````",
"```bbbbbbbbbbbbbbb``",
"``bbbbbbbbbbbbbbbbb`",
"``bbbbbbbbbbbbbbbbb`",
"```bbbbbbbbbbbbbbb``",
"``````e`d```d`e`````",
"```````ecb`bce``````",
"````````cbbbc```````",
"````````ccbcc```````",
"````````ccccc```````",
"`````dddddbcccdd````",
"`````ccdddbccccc````",
"`````cccddbccccc````",
"``````ddcdbccdd`````",
"````````````````````",
"````````````````````",
"````````````````````",
"````````````aa``````",
"`````````````aaa````",
"````bbbb```cb```````",
"````bbbbbbdccbbc````",
"````bbbbbbbbbcd`````",
"`````bbbbbbbbbb`````",
"```````bbbbbbbbbbb``",
"```````e`dbbbbbbbbb`",
"```````ec```bbbbbbbb",
"````````cb`bd`bbbbbb",
"```````ccbbbcee``b``",
"````dd`ccbcc````````",
"```ccddddccc````````",
"```cccddbccc````````",
"````ddddbcccd```````",
"`````cdbbccccd``````",
"````````cccccc``````",
"``````````dd````````",
"````````````````````",
"````````````````````",
"```````b````````````",
"``````bbbb`````a````",
"```````bbbb`````a```",
"```````bbbbb`db``a``",
"````````bbbbbccb``a`",
"````````ebbbbbccb```",
"````````e`bbbbbcd```",
"````````ed`bbbbb````",
"````d```cb``bbbbb```",
"```cdd`cbb```bbbbb``",
"``cccddccbbbd`bbbbb`",
"``dccdddccbceeebbbb`",
"```ddddbccc`````bbbb",
"````ddbccc````````b`",
"`````bccccd`````````",
"``````ccccdd````````",
"```````dccc`````````",
"````````dc``````````",
"````````````````````",
"````````````````````",
"``````````bb````````",
"``````````bbb```````",
"`````````bbbbb``````",
"``````````bbbb``````",
"``````````bbbb``c`a`",
"`````````ebbbbbdb`a`",
"```cd````e`bbbbcb`a`",
"```ccd```cdbbbbbcb`a",
"``dcddcccbb`bbbbcc``",
"``dcdddccb``bbbbd```",
"```cdddcbbb`dbbbb```",
"```dbbbccccc`bbbb```",
"````bccccc`eebbbbb``",
"````cccc``````bbbb``",
"````cdccd`````bbbb``",
"`````dccd``````bbb``",
"``````cc````````````",
"````````````````````",
"````````````````````",
"````````````````````",
"````````````````````",
"`````````````bb`````",
"````````````bbbb````",
"````````````bbbb````",
"````ccd`````bbbb````",
"```dccd````ebbbb````",
"```dcdd```e`bbbb````",
"```cdddccccdbbbbdc`a",
"```ddddccbb`bbbbcb`a",
"```bbbbcbb``bbbbcb`a",
"```ccccccbb`bbbbcb`a",
"```ccccccccdbbbbdc`a",
"```dccc```e`bbbb````",
"```dccd````ebbbb````",
"````ccd`````bbbb````",
"````````````bbbb````",
"````````````bbbb````",
"`````````````bb`````",
"````````````````````",
"````````````````````",
"````````````````````",
"````````````````````",
"``````cc````````````",
"`````dccd``````bbb``",
"````cdcdd`````bbbb``",
"````dddd``````bbbb``",
"````bdddcc`eebbbbb``",
"```cbbbdcccc`bbbb```",
"```cccccbbb`dbbbb```",
"``dccccccb``bbbbd```",
"``dccccccbb`bbbbcc``",
"```ccd```cdbbbbbcb`a",
"```cd````e`bbbbcb`a`",
"`````````ebbbbbdb`a`",
"``````````bbbb``c`a`",
"``````````bbbb``````",
"`````````bbbbb``````",
"``````````bbb```````",
"``````````bb````````",
"````````````````````",
"````````````````````",
"````````dc``````````",
"```````dccc`````````",
"``````ddccdd````````",
"`````bddddd`````````",
"````ccbddd````````b`",
"```dcccbdcc`````bbbb",
"``dcccccccbceeebbbb`",
"``cccccccbbbd`bbbbb`",
"```cdd`cbb```bbbbb``",
"````d```cb``bbbbb```",
"````````ed`bbbbb````",
"````````e`bbbbbcd```",
"````````ebbbbbccb```",
"````````bbbbbccb``a`",
"```````bbbbb`db``a``",
"```````bbbb`````a```",
"``````bbbb`````a````",
"```````b````````````",
"````````````````````",
"````````````````````",
"``````````dd````````",
"````````dccccc``````",
"`````ccbbdddcd``````",
"````ddccbdddd```````",
"```cccccbddc````````",
"```ccccccccc````````",
"````dd`ccbcc````````",
"```````ccbbbcee``b``",
"````````cb`bd`bbbbbb",
"```````ec```bbbbbbbb",
"```````e`dbbbbbbbbb`",
"```````bbbbbbbbbbb``",
"`````bbbbbbbbbb`````",
"````bbbbbbbbbcd`````",
"````bbbbbbdccbbc````",
"````bbbb```cb```````",
"`````````````aaa````",
"````````````aa``````",
"````````````````````",
"````````````````````",
"````````````````````",
"``````ddccbdcdd`````",
"`````cccccbddccc````",
"`````cccccbdddcc````",
"`````ddcccbddddd````",
"````````ccccc```````",
"````````ccbcc```````",
"````````cbbbc```````",
"```````ecb`bce``````",
"``````e`d```d`e`````",
"```bbbbbbbbbbbbbbb``",
"``bbbbbbbbbbbbbbbbb`",
"``bbbbbbbbbbbbbbbbb`",
"```bbbbbbbbbbbbbbb``",
"````````dcccd```````",
"````````cbbbc```````",
"````````````````````",
"````````aaaaa```````",
"````````````````````",
"````````````````````",
"`````````dd`````````",
"```````cccccc```````",
"```````dccccbbdc````",
"````````dcccbdddd```",
"`````````cccbddccc``",
"`````````cccddddcc``",
"`````````ccbcc`dd```",
"```b``eecbbbcc``````",
"`bbbbbb`db`bc```````",
"`bbbbbbbb```ce``````",
"``bbbbbbbbbd`e``````",
"```bbbbbbbbbbb``````",
"``````bbbbbbbbbb````",
"``````dcbbbbbbbbb```",
"`````cbbccdbbbbbb```",
"````````bc```bbbb```",
"`````aaa````````````",
"```````aa```````````",
"````````````````````",
"````````````````````",
"```````````cd```````",
"``````````cccd``````",
"`````````ddcccc`````",
"``````````dccccb````",
"``b````````cccbdd```",
"`bbbb`````cccbdddd``",
"``bbbbeeecbccdddccd`",
"``bbbbb`dbbbccddccc`",
"```bbbbb```bbc`ddc``",
"````bbbbb``bc```d```",
"`````bbbbb`de```````",
"````dcbbbbb`e```````",
"````bccbbbbbe```````",
"``a``bccbbbbb```````",
"```a``bd`bbbbb``````",
"````a`````bbbb``````",
"`````a`````bbbb`````",
"`````````````b``````",
"````````````````````",
"````````````````````",
"````````````````````",
"`````````````cc`````",
"```bbb``````dccd````",
"```bbbb`````dccdc```",
"```bbbb``````cccc```",
"```bbbbbee`cccccb```",
"````bbbb`cccccbbbd``",
"````bbbbd`bbbcdddc``",
"````dbbbb``bccdddcd`",
"```ccbbbb`bbcccddcd`",
"`a`bcbbbbbdc```dcc``",
"`aa`bcbbbb`e````dc``",
"``a`bdbbbbbe````````",
"``a`c``bbbb`````````",
"```````bbbb`````````",
"```````bbbbb````````",
"````````bbb`````````",
"`````````bb`````````",
"````````````````````",
"````````````````````",
"``````bb````````````",
"`````bbbb```````````",
"`````bbbb```````````",
"`````bbbb`````dcc```",
"`````bbbbe````dccd``",
"`````bbbb`e```cccd``",
"`a`cdbbbbdcccccccc``",
"`a`bcbbbb`bbcccccc``",
"`a`bcbbbb``bbcbbbb``",
"`a`bcbbbb`bbccdddd``",
"`a`cdbbbbdccccdddc``",
"`````bbbb`e```ddcd``",
"`````bbbbe````dccd``",
"`````bbbb`````dcc```",
"`````bbbb```````````",
"`````bbbb```````````",
"``````bb````````````",
"````````````````````",
"````````````````````",
"`````````bb`````````",
"````````bbb`````````",
"```````bbbbb````````",
"```````bbbb`````````",
"``a`c``bbbb`````````",
"``a`bdbbbbbe````````",
"`aa`bcbbbb`e````dc``",
"`a`bcbbbbbdc```dcc``",
"```ccbbbb`bbccccccd`",
"````dbbbb``bccccccd`",
"````bbbbd`bbbccccc``",
"````bbbb`ccccdbbbc``",
"```bbbbbee`ccdddb```",
"```bbbb``````dddd```",
"```bbbb`````ddcdc```",
"```bbb``````dccd````",
"`````````````cc`````",
"````````````````````",
"````````````````````",
"````````````````````",
"`````````````b``````",
"`````a`````bbbb`````",
"````a`````bbbb``````",
"```a``bd`bbbbb``````",
"``a``bccbbbbb```````",
"````bccbbbbbe```````",
"````dcbbbbb`e```````",
"`````bbbbb`de```````",
"````bbbbb``bc```d```",
"```bbbbb```bbc`ddc``",
"``bbbbb`dbbbccccccc`",
"``bbbbeeecbcccccccd`",
"`bbbb`````ccdbcccd``",
"``b````````dddbcc```",
"``````````dddddb````",
"`````````ddccdd`````",
"``````````cccd``````",
"```````````cd```````",
"````````````````````",
"````````````````````",
"```````aa```````````",
"`````aaa````````````",
"````````bc```bbbb```",
"`````cbbccdbbbbbb```",
"``````dcbbbbbbbbb```",
"``````bbbbbbbbbb````",
"```bbbbbbbbbbb``````",
"``bbbbbbbbbd`e``````",
"`bbbbbbbb```ce``````",
"`bbbbbb`db`bc```````",
"```b``eecbbbcc``````",
"`````````ccbcc`dd```",
"`````````ccccccccc``",
"`````````cddbccccc``",
"````````ddddbccdd```",
"```````dcdddbbcc````",
"```````cccccd```````",
"`````````dd`````````",
"````````````````````"
};
