/* XPM */
static char *noname[] = {
/* width height ncolors chars_per_pixel */
"20 320 5 1",
/* colors */
"` c None",
"a c #FFFF8E8E5757",
"b c #BFBF6A6A4141",
"c c #010100000000",
"d c #FFFF00000000",
/* pixels */
"````````````````````",
"````````````````````",
"````````````````````",
"````````````````````",
"````````````````````",
"``````ab````ba``````",
"`````baab``baab`````",
"````baaca``acaab````",
"````bacca``accab````",
"```bbaaaa``aaaabb```",
"```bbaaaabbaaaabb```",
"```bbaaaabbaaaabb```",
"```bbaaaaddaaaabb```",
"```dbbaad``daabbd```",
"````dbbd````dbbd````",
"`````dd``````dd`````",
"````````````````````",
"````````````````````",
"````````````````````",
"````````````````````",
"````````````````````",
"````````````````````",
"````````````````````",
"````````````````````",
"```````bab``````````",
"`````baaab``````````",
"````bbaaca``bba`````",
"```bbbacca``aaa`````",
"```bbaaaaa``acab````",
"```bbaaaab``accab```",
"``dbaaaabbaaaaab````",
"```dbaaadbaaaaabb```",
"```dbbad`daaaabb````",
"````d`d```daaabb````",
"```````````dabbb````",
"``````````dbbbd`````",
"```````````d`d``````",
"````````````````````",
"````````````````````",
"````````````````````",
"````````````````````",
"````````````````````",
"````````````````````",
"``````bbbbaa````````",
"`````bbaaaab````````",
"````bbbacccb````````",
"``dbbaaaaaa`````````",
"```bbaaaaa```b`b````",
"```dbaaaaa``aaaaa```",
"```dbaaabbbaccab````",
"````ddd`dbaaacaa````",
"````````daaaaabb````",
"````````daaaaab`````",
"````````daaabbb`````",
"`````````bbabbb`````",
"`````````dbbdb``````",
"`````````dd`````````",
"````````````````````",
"````````````````````",
"````````````````````",
"````````````````````",
"````````````````````",
"````````````````````",
"```````bb`b`b```````",
"`````dbbbbbaaaa`````",
"`````bbbaaaccab`````",
"````dbaaaaacab``````",
"````dbaaaaaaa```````",
"````dbaaaab`````````",
"`````ddadbb``ab`````",
"`````````dbaaacab```",
"````````daaaacaaa```",
"````````aaaaacab````",
"````````daaaaaab````",
"```````dbbaabbb`````",
"```````dbbbbbb``````",
"`````````ddbb```````",
"````````````````````",
"````````````````````",
"````````````````````",
"````````````````````",
"````````````````````",
"````````````````````",
"```````dbbbb````````",
"``````dbbbbbbb``````",
"`````dbbaaaaaab`````",
"`````dbaaaaacaaa````",
"``````daaaaaccab````",
"```````daaaaaab`````",
"````````dbb`````````",
"````````dbb`````````",
"```````daaaaaab`````",
"``````daaaaaccab````",
"`````dbaaaaacaaa````",
"`````dbbaaaaaab`````",
"``````dbbbbbbb``````",
"```````dbbbb````````",
"````````````````````",
"````````````````````",
"````````````````````",
"````````````````````",
"````````````````````",
"````````````````````",
"`````````ddbb```````",
"```````dbbbbbb``````",
"```````dbbaabbb`````",
"````````daaaaaab````",
"````````aaaaacab````",
"````````daaaacaaa```",
"`````````dbaaacab```",
"`````ddadbb``ab`````",
"````dbaaaab`````````",
"````dbaaaaaaa```````",
"````dbaaaaacab``````",
"`````bbbaaaccab`````",
"`````dbbbbbaaaa`````",
"```````bb`b`b```````",
"````````````````````",
"````````````````````",
"````````````````````",
"````````````````````",
"````````````````````",
"````````````````````",
"`````````dd`````````",
"`````````dbbdb``````",
"`````````bbabbb`````",
"````````daaabbb`````",
"````````daaaaab`````",
"````````daaaaabb````",
"````ddd`dbaaacaa````",
"```dbaaabbbaccab````",
"```dbaaaaa``aaaaa```",
"```bbaaaaa```b`b````",
"``dbbaaaaaa`````````",
"````bbbacccb````````",
"`````bbaaaab````````",
"``````bbbbaa````````",
"````````````````````",
"````````````````````",
"````````````````````",
"````````````````````",
"````````````````````",
"````````````````````",
"```````````d`d``````",
"``````````dbbbd`````",
"```````````dabbb````",
"````d`d```daaabb````",
"```dbbad`daaaabb````",
"```dbaaadbaaaaabb```",
"``dbaaaabbaaaaab````",
"```bbaaaab``accab```",
"```bbaaaaa``acab````",
"```bbbacca``aaa`````",
"````bbaaca``bba`````",
"`````baaab``````````",
"```````bab``````````",
"````````````````````",
"````````````````````",
"````````````````````",
"````````````````````",
"````````````````````",
"````````````````````",
"````````````````````",
"````````````````````",
"`````dd``````dd`````",
"````dbbd````dbbd````",
"```dbbaad``daabbd```",
"```bbaaaaddaaaabb```",
"```bbaaaabbaaaabb```",
"```bbaaaabbaaaabb```",
"```bbaaaa``aaaabb```",
"````bacca``accab````",
"````baaca``acaab````",
"`````baab``baab`````",
"``````ab````ba``````",
"````````````````````",
"````````````````````",
"````````````````````",
"````````````````````",
"````````````````````",
"````````````````````",
"````````````````````",
"````````````````````",
"````````````````````",
"``````ddd```````````",
"````dbbbbd``````````",
"````bbaaad``````````",
"```bbbaaaa````dd````",
"```bbaaaad`dadbb````",
"````baaaabdaaabbd```",
"```bbaaabbbaaaabd```",
"````acca``aaaaabb```",
"```bacaa``aaaabbb```",
"````aab``aaccabb````",
"````ab```bcaaab`````",
"``````````aabb``````",
"``````````ba````````",
"````````````````````",
"````````````````````",
"````````````````````",
"````````````````````",
"````````````````````",
"``````d`````````````",
"``````bbdd``````````",
"`````bbbbbd`````````",
"````bbaaaad`````````",
"```bbbaaaad`````````",
"```baaaaaa``````````",
"```bacaaabdddd``````",
"```bacaaabbaaabdd```",
"```aaca``baaaabbd```",
"```abb```aaaaaab````",
"````````acaaabbd````",
"```````baccaabbb````",
"````````aaabbbb`````",
"```````babab````````",
"````````a```````````",
"````````````````````",
"````````````````````",
"````````````````````",
"````````````````````",
"````````````````````",
"``````````d`````````",
"```````bbbbdd```````",
"``````bbbbabbd``````",
"`````bbbaaaab```````",
"`````aaaaaaaad``````",
"````baacaaaad```````",
"````aaccaabd````````",
"````bbaaabbbd```````",
"``````````aaad`d````",
"``````````aaaadbd```",
"``````baaaaaaaab````",
"``````baccaaaabbd```",
"``````aaacaabbbd````",
"````````babbbbb`````",
"`````````b`b````````",
"````````````````````",
"````````````````````",
"````````````````````",
"````````````````````",
"````````````````````",
"````````````````````",
"````````````````````",
"`````````bbbbd``````",
"```````bbbbbbbd`````",
"``````baaaaaabbd````",
"`````aaacaaaaabd````",
"`````baccaaaaad`````",
"``````baaaaaad``````",
"``````````bbd```````",
"``````````bbd```````",
"``````baaaaaad``````",
"`````baccaaaaad`````",
"`````aaacaaaaabd````",
"``````baaaaaabbd````",
"```````bbbbbbbd`````",
"`````````bbbbd``````",
"````````````````````",
"````````````````````",
"````````````````````",
"````````````````````",
"````````````````````",
"````````````````````",
"````````````````````",
"```````bbb`b````````",
"``````aaaaabbbb`````",
"`````baacaabbbd`````",
"``````bccaaaaabd````",
"```````aaaaaaabbd```",
"`````````aaaaabd````",
"`````b```bbdd`d`````",
"````baaaabbd````````",
"```aaccaaaa`````````",
"````bacaaaad````````",
"`````aaaaaaad```````",
"````bbbaaaabd```````",
"``````bbbbbbd```````",
"```````bbbbd````````",
"`````````d``````````",
"````````````````````",
"````````````````````",
"````````````````````",
"````````````````````",
"````````a```````````",
"```````babbb````````",
"````````aaaabbb`````",
"```````bcccaabb`````",
"```````aaaaaabbd````",
"```abb```aaaaabb````",
"```aaaa``baaaabd````",
"```bacca`bbaaabbd```",
"```aacaaabd`dd`d````",
"```bbaaaaad`````````",
"````bbaaaad`````````",
"```bbbaaaa``````````",
"`````bbabbd`````````",
"`````bdbbdd`````````",
"````````d```````````",
"````````````````````",
"````````````````````",
"````````````````````",
"````````````````````",
"````````````````````",
"````````````````````",
"`````````baab```````",
"`````````baaab``````",
"```ab`b``accabb`````",
"````baaa``acaabb````",
"````aaca``aaaabbb```",
"```bacca`baaaaabb```",
"```baaaabbbaaaabd```",
"``bbaaaaaddaaabd````",
"```bbbaaaa``ddbb````",
"````bbaaad````dd````",
"````bbbad```````````",
"````ddbb````````````",
"``````dd````````````",
"````````````````````",
"````````````````````"
};
