/* XPM */
static char * player1_xpm[] = {
"20 80 12 1",
" 	c None",
".	c #939307070000",
"X	c #BBBB37370707",
"o	c #00000101A2A2",
"O	c #D7D7D7D7E7E7",
"+	c #838383838383",
"@	c #474747474747",
"#	c #AFAFB3B3D3D3",
"$	c #83838F8FBBBB",
"%	c #01010000FFFF",
"&	c #000000006161",
"*	c #0000FFFFFFFF",
"        .X.         ",
"       .XXX.        ",
"       XXoXX        ",
"      .X.X.X.       ",
"        .O.         ",
"    +   +O+   +     ",
"   @O@  +O+  @O@    ",
"   +O+  +O+  +O+    ",
"   +O++ +O+ ++O+    ",
"   +O+###O###+O+    ",
"   +O#+++O+++#O+    ",
"   +O++@+O+@++O+    ",
"   +O+  +O+  +O+    ",
"   @$@  @O@  @$@    ",
"   o%o   +   o%o    ",
"   &o&       &o&    ",
"    &         &     ",
"                    ",
"                    ",
"                    ",
"        .X.         ",
"       .XXX.        ",
"       XXoXX        ",
"      .X.X.X.       ",
"        .O.         ",
"    +   +O+   +     ",
"   @O@  +O+  @O@    ",
"   +O+  +O+  +O+    ",
"   +O++ +O+ ++O+    ",
"   +O+###O###+O+    ",
"   +O#+++O+++#O+    ",
"   +O++@+O+@++O+    ",
"   +O+  +O+  +O+    ",
"   @$@  @O@  @$@    ",
"   o%o   +   o%o    ",
"   o%o       o%o    ",
"   o%o       o%o    ",
"   &o&       &o&    ",
"                    ",
"                    ",
"        .X.         ",
"       .XXX.        ",
"       XXoXX        ",
"      .X.X.X.       ",
"        .O.         ",
"    +   +O+   +     ",
"   @O@  +O+  @O@    ",
"   +O+  +O+  +O+    ",
"   +O++ +O+ ++O+    ",
"   +O+###O###+O+    ",
"   +O#+++O+++#O+    ",
"   +O++@+O+@++O+    ",
"   +O+  +O+  +O+    ",
"   &$&  @O@  &$&    ",
"  &o*o&  +  &o*o&   ",
"  o%*%o     o%*%o   ",
"  o%*%o     o%*%o   ",
"  o%%%o     o%%%o   ",
"  &o%o&     &o%o&   ",
"   &o&       &o&    ",
"        .X.         ",
"       .XXX.        ",
"       XXoXX        ",
"      .X.X.X.       ",
"        .O.         ",
"    +   +O+   +     ",
"   @O@  +O+  @O@    ",
"   +O+  +O+  +O+    ",
"   +O++ +O+ ++O+    ",
"   +O+###O###+O+    ",
"   +O#+++O+++#O+    ",
"   +O++@+O+@++O+    ",
"   +O+  +O+  +O+    ",
"   @$@  @O@  @$@    ",
"   o%o   +   o%o    ",
"   o%o       o%o    ",
"   o%o       o%o    ",
"   &o&       &o&    ",
"                    ",
"                    "
};
