/* XPM */
static char * pr_blank_xpm[] = {
"15 10 3 1",
" 	c #000000000000",
".	c #00000000AFAF",
"X	c #00000000FFFF",
"  ..XXXXXXX..  ",
" ..XXXXXXXXXX. ",
"...XXXXXXXXXXX.",
"..XXXXXXXXXXXXX",
"...XXXXXXXXXXXX",
"...XXXXXXXXXXXX",
"....XXXXXXXXXXX",
".....XXXXXXXXX.",
" .....XXXXXXX. ",
"  ...........  "};
