/* XPM */
static char * shield_xpm[] = {
"20 20 4 1",
" 	c None",
".	c #00000000AFAF",
"X	c #00000000FFFF",
"o	c #0F0FA0A0FFFF",
"        ...         ",
"       .XXX.        ",
"      .XoooX.       ",
"     .Xo   oX.      ",
"    .Xo     oX.     ",
"    .Xo     oX.     ",
"   .Xo       oX.    ",
"  .XoXoo   ooXoX.   ",
" .Xo oXo   oXo oX.  ",
".Xo   oo   oo   oX. ",
".Xo   oo   oo   oX. ",
".Xo    o   o    oX. ",
".Xo             oX. ",
".Xo             oX. ",
".Xo             oX. ",
".Xo   oo   oo   oX. ",
" .Xo oXo   oXo oX.  ",
"  .XoX.Xo oX.XoX.   ",
"   .X. .XoX. .X.    ",
"    .   .X.   .     "};
