/* XPM */
static char *noname[] = {
/* width height ncolors chars_per_pixel */
"126 37 7 1",
/* colors */
"` c None",
"a c #606000",
"b c #909000",
"c c #C0B000",
"d c #F0E000",
"e c #404040",
"f c #303030",
/* pixels */
"`````````````````faf`````````````````````````````````````````````````faf``````````````````````````````````````````````````````",
"````fabf````````fccbf`````````fabbbf````````````````````````````````fccbf`````````````````````````````````````````````````````",
"```fccdbf``````acddda```````fbccdddbbf`````````````````````````````acddda`````````````````````````````````````````````````````",
"``abcddda`````aabddda``````fccdbaaccdbf```````````````````````````acdddda`````````````````````````````````````````````````````",
"`accdddbf````aaacddbf`````acdbaaababddbf`````````````````````````abcdbcda`````````````````````````````````````````````````````",
"`cccddda`````fabcdda`````acddaffbaaabddbf```````````````````````accdbbcda`````````````````````````````````````````````````````",
"`ccabdda`````abcddbf````abcdbf``fbaaabdda```````````````````````cbcdabcbf`````````````````````````````````````````````````````",
"`caacddcf````bbcdbf````abcdbf````fbaacddcf``````````````````````bbcdaaca``````````````````````````````````````````````````````",
"`fbcabdda```abcdda`````acdbf``````fbccddda`````````````````````accddabca``````````````````````````````````````````````````````",
"``caacddcf``bbcdbf````abcda````````ccabdbf`````````````````````cccdbacbf``````````````````````````````````````````````````````",
"``fbcabdda`abcdbf````accdda````````caaaae``````````````````````cccdaaca``````````````````````````````fabbf````````````````````",
"```caacddcfacdda`````cbcdbf````````fbaaf```````````````````````cccdccbf`````````````````````````````fccdda````````````````````",
"```fbcabddbcddbf`````bbcda``````````ff```````````````fabbf`````cbcddda````````````````fabbf````````acdddbf```````````fabbf````",
"````caaabddddbf`````accdda`````````````````````````fbccdbf`````bbcddbf``````````````fbccdbf```````acdddbf``````````fbccdbf````",
"````fbaaabddbf``````cccdda```````````````````````fbccbaae`````accddda`````````````fbccbaae```````abcdbae`````````fbccbaae`````",
"`````fbaacdda```````cbcdda``````````````````````fccbaaafaf````cccddbf````````````fccbaaafaf`````abcdbaf`````````fccbaaafaf````",
"``````facdddcf``````bbcdda````````````````````fbcdbafffcca````cccdda```````````fbcdbafffcca`````bbcbf`````````fbcdbafffcca````",
"``````acdbcdda`````accddda```````````fabf````fccdbf``acdda````cbcddcf`````````fccdbf``acdda````abcda`````````fccdbf``acdda````",
"`````abcbbabdcf````cccddda``````````fbcda```acddbf``acddda````acdddda````````acddbf``acddda````acdbf````````acddbf``acddda````",
"````abcdaaaabcbf```ccabddcf````````aacdda``acddbf``abcddbf```acbcddda```````acddbf``abcddbf```acdda```````fbcddbf``abcddbf````",
"````acdbebaacdda```caacddda````````acddda`abcdbf``abcbcda```acbbcddda`````fbcddbf``abcbcda```aaacdcf`````fccddbf``abcbcda```ff",
"```abcbf`fbcabdcf``fbccdddcf``````acdddbfacabda``fbcbbcda``acbbcabddcf```fcbacda``fbcbbcda``acaacdda````acbacda``fbcbbcda``fba",
"``abcbf```caaabcbf``ccabdddbf````acdddda`caacdcbbccdabcdcbbcbfcaacdddbbbbcbaacdcbbccdabcdcbbcbaccddcf``acbaacdcbbccdabcdcbbcbf",
"``acbf````fbaaabcbf`caaabdddbbbbbcbcddda`fabcdddddbaacabcddbf`fbcabddddddbfabcdddddbaacabcddbfccabddbbbcbfabcdddddbaacabcddbf`",
"`abca``````fbaaaaba`fbaaaacdddddbabcddda`acabddddbafcaaaaaae```caaabdddbaeacabddddbafcaaaaaae`caaabddddbfacabddddbafcaaaaaae``",
"acaaf```````fbaaaa```fbaabaaaaaaaaccddda`caaaaaaae``fbaaaaf````fbaaaaaaaf`caaaaaaae``fbaaaaf``fbaaabddda`caaaaaaae``fbaaaaf```",
"caaf`````````ffbe`````ffbaaaaaaf`cccddbf`fbaaaaaf````ffff```````fbaaaaf```fbaaaaaf````ffff`````fbaacdddcffbaaaaaf````ffff`````",
"ff`````````````f````````ffffff```cccdda```fffff``````````````````ffff``````fffff````````````````facbaaccbffffff```````````````",
"`````````````````````````````````cccdda`````````````````````````````````````````````````````````acbaabcdda````````````````````",
"`````````````````````````````````cccdda````````````````````````````````````````````````````````acbffbcabda````````````````````",
"`````````````````````````````````cccdda```````````````````````````````````````````````````````abbf``caacda````````````````````",
"`````````````````````````````````cccdda``````````````````````````````````````````````````````accbf``fabcda````````````````````",
"`````````````````````````````````cccdda``````````````````````````````````````````````````````cbabbbbbccdbf````````````````````",
"`````````````````````````````````cccdbf``````````````````````````````````````````````````````caaabcdddbae`````````````````````",
"`````````````````````````````````ccaae```````````````````````````````````````````````````````fbaaaaaaaaf``````````````````````",
"`````````````````````````````````caaf`````````````````````````````````````````````````````````fbaaaaaf````````````````````````",
"`````````````````````````````````ff````````````````````````````````````````````````````````````fffff``````````````````````````"
};
