/* XPM */
static char *noname[] = {
/* width height ncolors chars_per_pixel */
"20 320 7 1",
/* colors */
"` c None",
"a c #CFCFC9C95454",
"b c #A8A800000000",
"c c #6E6E00000000",
"d c #010100000000",
"e c #FFFFF9F96868",
"f c #FFFF00000000",
/* pixels */
"````````````````````",
"````````bbbb````````",
"```````bffffb```````",
"``````bffffffb``````",
"``````bffffffb``````",
"``````bffddffb``````",
"`````bfffddfffb`````",
"````bfffddddfffb````",
"```bffffffffffffb```",
"``bffffffffffffffb``",
"```bbbbbbbbbbbbbb```",
"`````bbbbbbbbbb`````",
"`````cccccccccc`````",
"`````bbbbbbbbbb`````",
"`````bffffffffb`````",
"````bffffffffffb````",
"````bffffffffffb````",
"`````eeeeeeeeee`````",
"```````aaaaaa```````",
"````````````````````",
"````````````````````",
"``````````bbbb``````",
"`````````bffffb`````",
"`````````bfffffb````",
"```````bbfffffff````",
"````bbffffddfffb````",
"```bfffffdddffbb````",
"```bbfffffdddff`````",
"`````bbffffffffb````",
"`````bbbbbffffffb```",
"````ccbbbbbbffffb```",
"````bbcccbbbbbfff```",
"``bfbfbbbcccbbbb`b``",
"``bffffffbbbcc``````",
"```effffffffbb``````",
"```eefffffffb```````",
"````aeeeffffb```````",
"`````aaaeeefb```````",
"````````aa`e````````",
"````````````````````",
"````````````````````",
"`````````````bb`````",
"``````b````bbffb````",
"`````bffbbfbffffbb``",
"`````bfffffffffff```",
"``````bfffffddfffb``",
"`````bbfffddddfff```",
"````bcbbbfffdfffbb``",
"````bbcbbbfffdffb```",
"`bbffbccbbbffffb````",
"``ffffbbcbbbffff````",
"`eeffffbccbbfffb````",
"``aeffffbbcbbbfb````",
"``aefffffbcb`bfb````",
"```aeeffffbc``b`````",
"````aaefffb`````````",
"`````aeeff``````````",
"````````ebb`````````",
"````````````````````",
"````````````````````",
"````````````````````",
"````````````````````",
"````````b```````````",
"```````bfbb`b`bb````",
"````````bfffffbffbb`",
"````````bfffffffffb`",
"``bb`bcbbfffdfffffb`",
"```ffbbcbbbffdddfffb",
"``efffbcbbbffdddfff`",
"``efffbccbbffdffffb`",
"``aefffbbcbbfffffbb`",
"``aeffffbcbbffffb```",
"``aeffffbcbbfffb````",
"```aeffffbcbbffb````",
"```aeefffbcbbff`````",
"```a`effb```bfb`````",
"``````ebb`````b`````",
"````````````````````",
"````````````````````",
"````````````````````",
"````````````````````",
"````````````````````",
"```````````b````````",
"``````````bfb```````",
"````bb````bffb``````",
"```effbbcbbfffb`````",
"```efffbcbbffffbbb``",
"``aefffbcbbfffffffb`",
"``aefffbcbbffdfffffb",
"``aefffbcbbffdddfffb",
"``aefffbcbbffdddfffb",
"``aefffbcbbffdfffffb",
"``aefffbcbbfffffffb`",
"```efffbcbbffffbbb``",
"```effbbcbbfffb`````",
"````bb````bffb``````",
"``````````bfb```````",
"```````````b````````",
"````````````````````",
"````````````````````",
"````````````````````",
"````````````````````",
"````````````````````",
"``````ebb`````b`````",
"```a`effb```bfb`````",
"```aeefffbcbbff`````",
"```aeffffbcbbffb````",
"``aeffffbcbbfffb````",
"``aeffffbcbbffffb```",
"``aefffbbcbbfffffbb`",
"``efffbccbbffdffffb`",
"``efffbcbbbffdddfff`",
"```ffbbcbbbffdddfffb",
"``bb`bcbbfffdfffffb`",
"````````bfffffffffb`",
"````````bfffffbffbb`",
"```````bfbb`b`bb````",
"````````b```````````",
"````````````````````",
"````````````````````",
"````````````````````",
"````````````````````",
"````````ebb`````````",
"`````aeeff``````````",
"````aaefffb`````````",
"```aeeffffbc``b`````",
"``aefffffbcb`bfb````",
"``aeffffbbcbbbfb````",
"`eeffffbccbbfffb````",
"``ffffbbcbbbffff````",
"`bbffbccbbbffffb````",
"````bbcbbbfffdffb```",
"````bcbbbfffdfffbb``",
"`````bbfffddddfff```",
"``````bfffffddfffb``",
"`````bfffffffffff```",
"`````bffbbfbffffbb``",
"``````b````bbffb````",
"`````````````bb`````",
"````````````````````",
"````````````````````",
"````````aa`e````````",
"`````aaaeeefb```````",
"````aeeeffffb```````",
"```eefffffffb```````",
"```effffffffbb``````",
"``bffffffbbbcc``````",
"``bfbfbbbcccbbbb`b``",
"````bbcccbbbbbfff```",
"````ccbbbbbbffffb```",
"`````bbbbbffffffb```",
"`````bbffffffffb````",
"```bbfffffdddff`````",
"```bfffffdddffbb````",
"````bbffffddfffb````",
"```````bbfffffff````",
"`````````bfffffb````",
"`````````bffffb`````",
"``````````bbbb``````",
"````````````````````",
"````````````````````",
"```````aaaaaa```````",
"`````eeeeeeeeee`````",
"````bffffffffffb````",
"````bffffffffffb````",
"`````bffffffffb`````",
"`````bbbbbbbbbb`````",
"`````cccccccccc`````",
"`````bbbbbbbbbb`````",
"```bbbbbbbbbbbbbb```",
"``bffffffffffffffb``",
"```bffffffffffffb```",
"````bfffddddfffb````",
"`````bfffddfffb`````",
"``````bffddffb``````",
"``````bffffffb``````",
"``````bffffffb``````",
"```````bffffb```````",
"````````bbbb````````",
"````````````````````",
"````````````````````",
"````````````````````",
"``````b`eeaaa```````",
"``````bfffeeeaaa````",
"```````ffffffee`````",
"``````bbffffffee````",
"``````cbbbffffffe```",
"```b``bcccbfffffb```",
"``bfbbbbbcbbbffbb```",
"```bfffbbbcccbb`````",
"```bfffbbbbbbcc`````",
"````ffffffbbbbb`````",
"```bffdffffffbbb````",
"````fffdddffffff````",
"```bbffddffffffbb```",
"```bfffddfffbb``````",
"````fffffffb````````",
"````bfffffb`````````",
"````bbbffbb`````````",
"```````b````````````",
"````````````````````",
"`````````b`e````````",
"`````````bfeaa``````",
"`````````fffeea`````",
"```````bbfffffea````",
"```bb`bcbbffffeaa```",
"``bffbbbccbffffee```",
"```ffffbbcbbffffe```",
"```bfffbbbccbffffe``",
"```bffffbbbcbbfffb``",
"```fffdffbbbccbb`b``",
"``bbffdfffbbbbc`````",
"``bffdddffffb```````",
"`bfffddfdfffbb``````",
"`bffffffffffffb`````",
"``bffffffbfbbb``````",
"```bfffbb```````````",
"```b`b`b````````````",
"````````````````````",
"````````````````````",
"````````````````````",
"````````````````````",
"````````````bb``````",
"``````bb````ffee````",
"`````bfb``cbbffea```",
"`````bffbbcbffffea``",
"`````fffbbbcbfffea``",
"````bffffbbcbfffea``",
"````bffffbbcbffffea`",
"``bbffdffbbbcbfffea`",
"`bfffdddffbbcbfffe``",
"`bfffdddffbbcbffffe`",
"`bfffffdfffbbcbbbb``",
"`bfffffffffbbcb`````",
"``bfffbfffffb```````",
"```bfbb`bfffb```````",
"`````````bbf````````",
"````````````b```````",
"````````````````````",
"````````````````````",
"````````````````````",
"````````````````````",
"````````````````````",
"`````````b``````````",
"````````bfb`````````",
"```````bffb````bb```",
"``````bfffbbcbbffe``",
"```bbbffffbbcbfffe``",
"``bfffffffbbcbfffea`",
"`bfffffdffbbcbfffea`",
"`bfffdddffbbcbfffea`",
"`bfffdddffbbcbfffea`",
"`bfffffdffbbcbfffea`",
"``bfffffffbbcbfffea`",
"```bbbffffbbcbfffe``",
"``````bfffbbcbbffe``",
"```````bffb````bb```",
"````````bfb`````````",
"`````````b``````````",
"````````````````````",
"````````````````````",
"````````````````````",
"````````````````````",
"````````````````````",
"```````````b````````",
"````b``bbfbf````````",
"```bfbbfffffb```````",
"`bffffffffbb````````",
"`bffffffffbbbc``b```",
"`bfffdddffbbccbbfb``",
"bfffdddffbbcbbfffe``",
"`bffffdffbbcbffffe``",
"``bfffdffbbcbffffea`",
"``bbffffbbcbffffea``",
"````bfffbbcbfffeea``",
"`````fffbbcbfffeaa``",
"````bffbbcbfffea````",
"`````bfb``bbffe`````",
"``````bb````bfe`````",
"````````````b```````",
"````````````````````",
"````````````````````",
"````````````````````",
"```b``b`````````````",
"```bfbfbb```````````",
"`bbffffffbbfbb``````",
"``ffffffffffffb`````",
"`bfffddfffffbb``````",
"`bfffdddfffbb```````",
"``bbffddffbbbc``````",
"```ffdfffbbbcbb`b```",
"```bfffffbbccbfbfb``",
"```ffffbbbcbbffffe``",
"```bfffbbbcbfffffe``",
"```bfbbbccbffffee```",
"``bfb`bcbbffffeaa```",
"```````cbffffeea````",
"````````bfffeaa`````",
"`````````bffea``````",
"`````````b`e````````",
"````````````````````",
"```````b````````````",
"`````bbfb```````````",
"`````bffffb`````````",
"````bfffffb`````````",
"```bffffffbfb```````",
"```bffdddffffbb`````",
"```bfffdddfffffb````",
"````bffddffffffb````",
"````ffffffffbbb`````",
"```bfffffbbbbbb`````",
"``bffffbbbbbccc`````",
"``ffbbbbbcccbbb`````",
"``bbb`bbccbbbffbb```",
"``````ccbbfffffffb``",
"``````bbffffffffe```",
"``````bffffffeee````",
"`````bffffeeeaa`````",
"```````bfeeaaa``````",
"````````e`a`````````"
};
