/* XPM */
static char *noname[] = {
/* width height ncolors chars_per_pixel */
"20 320 7 1",
/* colors */
"` c None",
"a c #FFFFFFFF0000",
"b c #A8A800000000",
"c c #999995953E3E",
"d c #FFFFFFFFFFFF",
"e c #FFFF00000000",
"f c #BCBCBCBCBCBC",
/* pixels */
"````````````````````",
"`````````bb`````````",
"````````beeb````````",
"```````beeeeb```````",
"```````beeeeb```````",
"````````beeb````````",
"`````````bb`````````",
"`````````ff`````````",
"````````fddf````````",
"```````fdffdf```````",
"````ccfdf``fdfcc````",
"```caaaf````faaac```",
"``caaaac````caaaac``",
"``caaaac````caaaac``",
"```caac``````caac```",
"````cc````````cc````",
"````````````````````",
"````````````````````",
"````````````````````",
"````````````````````",
"````````````````````",
"````````````bb``````",
"``````````bbee``````",
"``````````beeeb`````",
"``````````beeeeb````",
"``````````eebeb`````",
"``````````bb````````",
"````c````fff````````",
"```cacf`fdddf```````",
"``caaaadf`ffd```````",
"`caaaaf```fdf```````",
"``caaac````ffc``````",
"``ccacc````caac`````",
"```````````caaac````",
"````````````aaaac```",
"```````````caaac````",
"```````````ccac`````",
"````````````````````",
"````````````````````",
"````````````````````",
"````````````````````",
"````````````````````",
"`````````````bbb````",
"````````````beeeb```",
"````````````beeeb```",
"``cccac`````beeee```",
"``aaaac`ff`fbeebb```",
"``caaaafddddf`b`````",
"```aaaaf`ffff```````",
"``ccccc````d````````",
"```````````ff```````",
"``````````fd````````",
"`````````ccafc``````",
"`````````aaaac``````",
"`````````caaac``````",
"``````````aaaa``````",
"`````````caccc``````",
"``````````c`````````",
"````````````````````",
"````````````````````",
"````````````````````",
"````````````````````",
"````````````````````",
"````cc``````````````",
"`````aacc``````bb```",
"````caaac``````eebb`",
"```caaaaf`f```beeeb`",
"````caaaadfdffbeeee`",
"`````cccf``fdfbeeeb`",
"```````````fd``bbb``",
"```````````fdf``````",
"```````````df```````",
"````````ccff````````",
"`````````aaac```````",
"````````caaac```````",
"```````caaaa````````",
"````````caaac```````",
"`````````ccc````````",
"````````````````````",
"````````````````````",
"````````````````````",
"````````````````````",
"```````cc```````````",
"``````caac``````````",
"`````caaaac`````````",
"`````caaaac`````````",
"``````caaaf`````````",
"```````ccfdf````bb``",
"``````````fdf``beeb`",
"```````````fdfbeeeeb",
"```````````fdfbeeeeb",
"``````````fdf``beeb`",
"```````ccfdf````bb``",
"``````caaaf`````````",
"`````caaaac`````````",
"`````caaaac`````````",
"``````caac``````````",
"```````cc```````````",
"````````````````````",
"````````````````````",
"````````````````````",
"````````````````````",
"`````````ccc````````",
"````````caaac```````",
"```````caaaa````````",
"````````caaac```````",
"`````````aaac```````",
"````````ccff````````",
"```````````df```````",
"```````````fdf``````",
"```````````fd``bbb``",
"`````cccf``fdfbeeeb`",
"````caaaadfdffbeeee`",
"```caaaaf`f```beeeb`",
"````caaac``````eebb`",
"`````aacc``````bb```",
"````cc``````````````",
"````````````````````",
"````````````````````",
"````````````````````",
"````````````````````",
"````````````````````",
"``````````c`````````",
"`````````caccc``````",
"``````````aaaa``````",
"`````````caaac``````",
"`````````aaaac``````",
"`````````ccafc``````",
"``````````fd````````",
"```````````ff```````",
"``ccccc````d````````",
"```aaaaf`ffff```````",
"``caaaafddddf`b`````",
"``aaaac`ff`fbeebb```",
"``cccac`````beeee```",
"````````````beeeb```",
"````````````beeeb```",
"`````````````bbb````",
"````````````````````",
"````````````````````",
"````````````````````",
"````````````````````",
"````````````````````",
"```````````ccac`````",
"```````````caaac````",
"````````````aaaac```",
"```````````caaac````",
"``ccacc````caac`````",
"``caaac````ffc``````",
"`caaaaf```fdf```````",
"``caaaadf`ffd```````",
"```cacf`fdddf```````",
"````c````fff````````",
"``````````bb````````",
"``````````eebeb`````",
"``````````beeeeb````",
"``````````beeeb`````",
"``````````bbee``````",
"````````````bb``````",
"````````````````````",
"````````````````````",
"````````````````````",
"````````````````````",
"````````````````````",
"````cc````````cc````",
"```caac``````caac```",
"``caaaac````caaaac``",
"``caaaac````caaaac``",
"```caaaf````faaac```",
"````ccfdf``fdfcc````",
"```````fdffdf```````",
"````````fddf````````",
"`````````ff`````````",
"`````````bb`````````",
"````````beeb````````",
"```````beeeeb```````",
"```````beeeeb```````",
"````````beeb````````",
"`````````bb`````````",
"````````````````````",
"````````````````````",
"````````````````````",
"````````````````````",
"``````c`````````````",
"```c`cac````````````",
"```caaaac```````````",
"````aaaac```````````",
"````caaac``````c````",
"````ccfaf```c`cac```",
"```````d````caaaac``",
"``````ff````faaaac``",
"```````dfffdfaaaac``",
"```````fdddf`cc`c```",
"```````ff`f`````````",
"``````bbb```````````",
"````beeeeb``````````",
"````beeeeb``````````",
"`````beeeb``````````",
"`````bbeb```````````",
"````````````````````",
"````````````````````",
"````````````````````",
"`````cac`c``````````",
"`````caaac``````````",
"`````caaac``````````",
"`````aaaac``````````",
"`````ccaac``````````",
"```````ff```````````",
"``````fd````````````",
"``````fdf```cac`c```",
"```````df``fcaaaac``",
"``````fdfdfdaaaac```",
"```bbbbff`f`faaac```",
"``beeee`````cccac```",
"``beeeeb````````````",
"``beeeb`````````````",
"```bbeb`````````````",
"````````````````````",
"````````````````````",
"````````````````````",
"````````````````````",
"``````````c`````````",
"`````````cacc```````",
"````````caaac```````",
"```````caaaaa```````",
"````````caaac```````",
"````````fafcc```````",
"`````````d``````````",
"````````ff``````````",
"```````fd```````````",
"``bbbebfdff`````````",
"``beeebfdfdfcc`cc```",
"`beeeb``fdffaaaac```",
"`beeee`````caaaaa```",
"```beb``````caaac```",
"````b````````cac````",
"``````````````c`````",
"````````````````````",
"````````````````````",
"````````````````````",
"````````````````````",
"````````````````````",
"````````````````````",
"````````````cc``````",
"```````````caac`````",
"``````````caaaac````",
"``````````caaaac````",
"``````````faaac`````",
"```bb````fdfcc``````",
"``beeb``fdf`````````",
"`beeeebfdf``````````",
"`beeeebfdf``````````",
"``beeb``fdf`````````",
"```bb````fdfcc``````",
"``````````faaac`````",
"``````````caaaac````",
"``````````caaaac````",
"```````````caac`````",
"````````````cc``````",
"````````````````````",
"````````````````````",
"````````````````````",
"````````````````````",
"````````````````````",
"````````````````````",
"``````````````c`````",
"````b````````cac````",
"``beb`````ccaaac````",
"`beeeb```ffaaaaac```",
"`beeeeb`fddfcaaac```",
"`beeebfdff``cac`````",
"``beb`fdf```````````",
"```b```fd```````````",
"```````ff```````````",
"````````dfc`````````",
"````````faac````````",
"```````caaac````````",
"```````caaaac```````",
"````````caaac```````",
"````````cac`````````",
"````````````````````",
"````````````````````",
"````````````````````",
"````````````````````",
"```bb`b`````````````",
"``beeeb`````````````",
"``beeeeb````````````",
"``beeee`````ccccc```",
"``bebbb`ff`faaaa````",
"``````ffddfdaaaac```",
"``````fdf``faaaac```",
"```````df```cccac```",
"``````fdf```````````",
"```````ff```````````",
"`````ccac```````````",
"`````aaaac``````````",
"`````caaac``````````",
"`````aaaac``````````",
"`````cccac``````````",
"````````````````````",
"````````````````````",
"````````````````````",
"`````bbb````````````",
"``````eeeb``````````",
"`````beeeb``````````",
"````beeeb```````````",
"````beeeb```````````",
"`````b`bf```````````",
"````````fdf`````````",
"```````fdfdffccacc``",
"```````df`fdfaaaac``",
"``````ff````caaaa```",
"````cfdf````caaac```",
"````caaac`````cac```",
"````caaac``````c````",
"```caaaa````````````",
"```caaac````````````",
"````ccc`````````````",
"````````````````````",
"````````````````````"
};
