/* XPM */
static char *noname[] = {
/* width height ncolors chars_per_pixel */
"20 320 10 1",
/* colors */
"` c None",
"a c #A8A800000000",
"b c #00000000AFAF",
"c c #00000000FFFF",
"d c #010100000000",
"e c #FFFFFFFFFFFF",
"f c #797979797979",
"g c #0000FFFFFFFF",
"h c #FFFF00000000",
"i c #BCBCBCBCBCBC",
/* pixels */
"````````````````````",
"````````````````````",
"````````````````````",
"`````````ee`````````",
"````````feef````````",
"`````i``ieei``i`````",
"````i```ieei```i````",
"```i````iddi````i```",
"```ieeefiddifeeei```",
"```eeeffddddffeee```",
"```hhaaaieeiaaahh```",
"```i````ieei````i```",
"```i````feef````i```",
"````i``bcggcb``i````",
"`````i``bccb``i`````",
"`````````bb`````````",
"````````````````````",
"````````````````````",
"````````````````````",
"````````````````````",
"````````````````````",
"````````````````````",
"````````````````````",
"```````i````ee``````",
"`````ii```ifee``````",
"````i````ieeif``````",
"````eee``ieei```````",
"```hheeefiddi``i````",
"```i`aaffdddi```i```",
"```i```aiedddfe``i``",
"```i```ieeiaffeei```",
"```````feei`aaeee```",
"````i`bcgef```hh````",
"```````bcgcb```i````",
"```````bbcb````i````",
"````````````ii``````",
"````````````````````",
"````````````````````",
"````````````````````",
"````````````````````",
"````````````````````",
"````````````````````",
"``````iii`i`````````",
"``````ee`````f``````",
"`````hee````iee`````",
"````i`heef`ieeee````",
"```i``affiideef`````",
"```i```aaddddii`````",
"````i```iiddii``````",
"`````b`feeedf```i```",
"``````cgeeiifee`i```",
"`````bcgef`afee`i```",
"``````bccb``aaei````",
"``````bb`````he`````",
"`````````````ih`````",
"``````````ii`i``````",
"````````````````````",
"````````````````````",
"````````````````````",
"````````````````````",
"````````````````````",
"````````````````````",
"``````````i`````````",
"```````hei`i`i``````",
"``````iihee`````````",
"`````i``aeee```f````",
"````````afffiiiee```",
"`````i```aidideeee``",
"``````b``iedddeef```",
"``````cfeeeddiii````",
"``````bggeeidi``````",
"`````bcccfiaff``````",
"`````b`bb``afe``i```",
"````````````aee`i```",
"````````````heei````",
"````````ii``hei`````",
"```````````ii```````",
"````````````````````",
"````````````````````",
"````````````````````",
"````````````````````",
"````````````````````",
"````````````````````",
"````````iiheii``````",
"```````i``hee`i`````",
"``````i```aee``i````",
"``````````afe```````",
"```````b``aff```````",
"``````bcfiidiiiif```",
"`````bcgeeedddeeee``",
"`````bcgeeedddeeee``",
"``````bcfiidiiiif```",
"```````b``aff```````",
"``````````afe```````",
"``````i```aee``i````",
"```````i``hee`i`````",
"````````iiheii``````",
"````````````````````",
"````````````````````",
"````````````````````",
"````````````````````",
"````````````````````",
"````````````````````",
"```````````ii```````",
"````````ii``hei`````",
"````````````heei````",
"````````````aee`i```",
"`````b`bb``afe``i```",
"`````bcccfiaff``````",
"``````bggeeidi``````",
"``````cfeeeddiii````",
"``````b``iedddeef```",
"`````i```aidideeee``",
"````````afffiiiee```",
"`````i``aeee```f````",
"``````iihee`````````",
"```````hei`i`i``````",
"``````````i`````````",
"````````````````````",
"````````````````````",
"````````````````````",
"````````````````````",
"````````````````````",
"````````````````````",
"``````````ii`i``````",
"`````````````ih`````",
"``````bb`````he`````",
"``````bccb``aaei````",
"`````bcgef`afee`i```",
"``````cgeeiifee`i```",
"`````b`feeedf```i```",
"````i```iiddii``````",
"```i```aaddddii`````",
"```i``affiideef`````",
"````i`heef`ieeee````",
"`````hee````iee`````",
"``````ee`````f``````",
"``````iii`i`````````",
"````````````````````",
"````````````````````",
"````````````````````",
"````````````````````",
"````````````````````",
"````````````````````",
"````````````ii``````",
"```````bbcb````i````",
"```````bcgcb```i````",
"````i`bcgef```hh````",
"```````feei`aaeee```",
"```i```ieeiaffeei```",
"```i```aiedddfe``i``",
"```i`aaffdddi```i```",
"```hheeefiddi``i````",
"````eee``ieei```````",
"````i````ieeif``````",
"`````ii```ifee``````",
"```````i````ee``````",
"````````````````````",
"````````````````````",
"````````````````````",
"````````````````````",
"````````````````````",
"````````````````````",
"````````````````````",
"`````````bb`````````",
"`````i``bccb``i`````",
"````i``bcggcb``i````",
"```i````feef````i```",
"```i````ieei````i```",
"```hhaaaieeiaaahh```",
"```eeeffddddffeee```",
"```ieeefiddifeeei```",
"```i````iddi````i```",
"````i```ieei```i````",
"`````i``ieei``i`````",
"````````feef````````",
"`````````ee`````````",
"````````````````````",
"````````````````````",
"````````````````````",
"````````````````````",
"````````````````````",
"````````````````````",
"````````````````````",
"````````````````````",
"`````i`i```bb```````",
"````i```bcbc````````",
"```hi````fgcb```````",
"```ehaa``egcb``i````",
"```ieefaieef```i````",
"``i`eefieeei````````",
"```i`efdddiaa```i```",
"``````iidddffahhi```",
"```i``iddiifeeee````",
"``````ieei```eei````",
"`````feeei````i`````",
"``````eef```ii``````",
"```````e````````````",
"````````````````````",
"````````````````````",
"````````````````````",
"````````````````````",
"````````````````````",
"``````ii````````````",
"`````i``i```````````",
"````h````b`b````````",
"``ieeha```ccbb``````",
"``ieeefa`fggcb``````",
"``i``efaieeec```````",
"`````fidieefb```````",
"``i```iddei````i````",
"`````iddddia```i````",
"````ieedifffa```````",
"```feeeii`eeahii````",
"````eefi``eeeeh`````",
"`````e``````i```````",
"`````````iii````````",
"````````````````````",
"````````````````````",
"````````````````````",
"````````````````````",
"````````````````````",
"````````````````````",
"```````hiii`````````",
"`````ieh````i```````",
"````i`eea```````````",
"````i`eea```b```````",
"```i```efaifcbb`````",
"```````ffieegcb`````",
"`````iiideeeegc`````",
"````ieedddiifcb`````",
"````feeddda``b``````",
"```eeiiiidfa```i````",
"```eef```ffa```i````",
"`````````eeeh```````",
"```````i``eehii`````",
"````````i`ie````````",
"`````````i``````````",
"````````````````````",
"````````````````````",
"````````````````````",
"````````````````````",
"````````````````````",
"````````````````````",
"```````iiehii```````",
"``````i`eeh``i``````",
"`````i``eea```i`````",
"````````efa`````````",
"````````ffa``b``````",
"````fiiiidiifcb`````",
"```eeeedddeeegcb````",
"```eeeedddeeegcb````",
"````fiiiidiifcb`````",
"````````ffa``b``````",
"````````efa`````````",
"`````i``eea```i`````",
"``````i`eeh``i``````",
"```````iiehii```````",
"````````````````````",
"````````````````````",
"````````````````````",
"````````````````````",
"````````````````````",
"````````````````````",
"```````ii```````````",
"``````i``eie````````",
"`````````eeehii`````",
"````````efah````````",
"```efii`ffa```i`````",
"```eeeeiida````i````",
"```eeedddiifb```````",
"```fiidddeeecb``````",
"``````iideeegcb`````",
"``````ffiifgcb``````",
"```i``efa``cb```````",
"````i`eea``b````````",
"```i`eea````````````",
"`````ieh```i````````",
"```````hiii`````````",
"````````````````````",
"````````````````````",
"````````````````````",
"````````````````````",
"````````````````````",
"`````````iii````````",
"````e``````ei```````",
"````eefi```eeeh`````",
"````eeei`feeahi`````",
"```fieeiiffa``i`````",
"`````iddddia```i````",
"``i``iiddei`````````",
"``````fddeef`b`i````",
"``i`eefaieegc```````",
"``i`eefa`iegcb``````",
"```ieha``fccbb``````",
"```eh````bb`````````",
"`````i``````````````",
"`````i`ii```````````",
"````````````````````",
"````````````````````",
"````````````````````",
"````````````````````",
"````````````````````",
"````````````````````",
"``````eef``i````````",
"``````eei````ii`````",
"`````feeei````i`````",
"`````iiedi`eeee`````",
"```i```iddiffeeh````",
"```i```idddfaah`i```",
"``i`eefddeia````i```",
"``ieeffieeei```i````",
"``eeaaa`ieefb```````",
"```hh````fggc``i````",
"````i```bcccb```````",
"````ii```bbb````````",
"``````i`````````````",
"````````````````````",
"````````````````````",
"````````````````````"
};
