/* XPM */
static char * C2_xpm[] = {
"20 320 11 1",
" 	c None",
".	c #C1C1C1C1C1C1",
"X	c #B0B0B0B0B0B0",
"o	c #0000FFFF0000",
"O	c #909090909090",
"+	c #A1A1A1A1A1A1",
"@	c #C1C15F5F5F5F",
"#	c #E1E16F6F6F6F",
"$	c #7F7F50503F3F",
"%	c #A1A190905050",
"&	c #FFFF00000000",
"                    ",
"                    ",
"                    ",
"  .              .  ",
"  .      XX      .  ",
"  o    O+..+O    o  ",
"  o@  OXX##XXO  @o  ",
"  o$#O+XX$$XX+O#$o  ",
"  oX%@#X$%%$X#@%Xo  ",
"  oX$%@$%##%$@%$Xo  ",
"  . +$%@@%%@@%$+ .  ",
"  X  O$%%##%%$O  X  ",
"  O   +X$@@$X+   O  ",
"      O$@&&@$O      ",
"       %$  $%       ",
"       @    @       ",
"                    ",
"                    ",
"                    ",
"                    ",
"                    ",
"     .              ",
"    .               ",
"    o               ",
"   o@     O         ",
"   o$  OO+X+O       ",
"   oX#O+XX...O      ",
"  oX$@#XXX##XO    . ",
"  . +%@X$%$XXXO   . ",
" O  +$%$%#%$X+O @o  ",
"    O$%@%%#%X#@#$o  ",
"     +X%#%@@@%$%Xo  ",
"    O$X$@#%%%$$Xo   ",
"     %@&&$XX$OO .   ",
"     @$  &$+O   X   ",
"         $%    +    ",
"         @          ",
"                    ",
"                    ",
"                    ",
"         O          ",
"        .           ",
"       o            ",
"      o@            ",
"     o$#            ",
"    .X%OOOOO        ",
"   + +%@+XX+.X      ",
"     $$@XXX#..      ",
"     O%@$$$$#+O     ",
"     +%@@#%$XXO     ",
"    OXX%%%#$XXO    O",
"    %$$@#%@$X+O   . ",
"   @%$&@@%@@@@O#@o  ",
"       &$X%%$%%$o   ",
"       $$X+O$+Xo    ",
"       %%O    .     ",
"       @     +      ",
"                    ",
"                    ",
"                    ",
"                    ",
"           ..       ",
"        ooo         ",
"     X.oX$@         ",
"    +  X%#          ",
"      O$$@OO        ",
"      O$%#+XOO      ",
"      $%@XXXX+O     ",
"     +X%@%$X#.X     ",
"    %$X%@#%$#.XO    ",
"   @$&$#%%#%XX+     ",
"      &@#%%$XXO     ",
"      &$%@$XX+O     ",
"     $@XX%%@#O      ",
"     @%$+$$%@#    . ",
"       O O++$X$@o.  ",
"            Xooo    ",
"           .o       ",
"          O         ",
"                    ",
"                    ",
"                    ",
"       OX.ooooo..   ",
"          XX$@      ",
"         +$%#       ",
"        O$%@O       ",
"      O+$%@#+O      ",
"    @%$X%@$XXXO     ",
"     $@$%@%$XX+     ",
"      &@#%#%$#.X    ",
"      &@#%#%$#.X    ",
"     $@$%@%$XX+     ",
"    @%$X%@$XXXO     ",
"      O+$%@#+O      ",
"        O$%@O       ",
"         +$%#       ",
"          XX$@      ",
"       OX.ooooo..   ",
"                    ",
"                    ",
"                    ",
"          O         ",
"           .o       ",
"            Xooo    ",
"       O O++$X$@o.  ",
"     @%$+$$%@#    . ",
"     $@XX%%@#O      ",
"      &$%@$XX+O     ",
"      &@#%%$XXO     ",
"   @$&$#%%#%XX+     ",
"    %$X%@#%$#.XO    ",
"     +X%@%$X#.+     ",
"     O$%@XXXX.O     ",
"      O$%#+XOO      ",
"      O$$@OO        ",
"    +  X%#          ",
"     X.oX$@         ",
"        ooo         ",
"           ..       ",
"                    ",
"                    ",
"                    ",
"                    ",
"       @     +      ",
"       %%O    .     ",
"       $$X+O$+Xo    ",
"       &$X%%$%%$o   ",
"   @%$&@@%@@@@O#@o  ",
"    %$$@#%@$X+O   . ",
"    OXX%%%#$XXO     ",
"     +%@@#%$XXO     ",
"     O%@$$$$#+O     ",
"     $$@XXX#..      ",
"   + +%@+XX+.X      ",
"    .X%OOOOO        ",
"     o$#            ",
"      o@            ",
"       o            ",
"        .           ",
"         O          ",
"                    ",
"                    ",
"                    ",
"         @          ",
"         $%    +    ",
"     @$  &$+    X   ",
"     %@&&$XX$OO .   ",
"    O$X$@#%%%$$ o   ",
"     +X%#%@@@%$%Xo  ",
"    O$%@%%#%X#@#$o  ",
" O  +$%$%#%$X+O @o  ",
"  . +%@X$%$XXXO   . ",
"  oX$@#XXX##XO    . ",
"   oX#O+XX..+O      ",
"   o$  OO+XXO       ",
"   o@     O         ",
"    o               ",
"    .               ",
"     .              ",
"                    ",
"                    ",
"                    ",
"                    ",
"                    ",
"       @    @       ",
"       %$  $%       ",
"      O$@&&@$O      ",
"  O   +X$@@$X+   O  ",
"  X  O$%%##%%$O  X  ",
"  . +$%@@%%@@%$+ .  ",
"  oX$%@$%##%$@%$Xo  ",
"  oX%@#X$%%$X#@%Xo  ",
"  o$#O+XX$$XX+O#$o  ",
"  o@  OXX##XXO  @o  ",
"  o    O+..+O    o  ",
"  .      XX      .  ",
"  .              .  ",
"                    ",
"                    ",
"                    ",
"                    ",
"                    ",
"                    ",
"          @         ",
"    +    %$         ",
"   X   O+$&  $@     ",
"   . OO$XX$&&@%     ",
"   oX$$%%%#@$X$O    ",
"  oX%$%@@@%#%X+     ",
"  o$#@#X%#%%@%$O    ",
"  o@ O+X$%#%$%$+  O ",
" .   OXXX$%$X@%+ .  ",
" .    OX##XXX#@$Xo  ",
"      O...XX+O#Xo   ",
"       O+X+OO  $o   ",
"         O     @o   ",
"               o    ",
"               .    ",
"              .     ",
"                    ",
"                    ",
"                    ",
"                    ",
"      +     @       ",
"     .    O%%       ",
"    oX+$O+X$$       ",
"   o$%%$%%X$&       ",
"  o@#O@@@@%@@&      ",
" .   O+X$@%#@$$%#   ",
"O    OXX$#%%%XXO    ",
"     OXX$%#@@%+     ",
"     O+#$$$$@%O     ",
"      ..#XXX@$$     ",
"      X.+XX+@%+ +   ",
"        OOOOO%X.    ",
"            #$o     ",
"            @o      ",
"            o       ",
"           .        ",
"          O         ",
"                    ",
"         O          ",
"       o.           ",
"    oooX            ",
"  .o@$X$++O O       ",
" .    #@%$$+$%@     ",
"      O#@%%XX@$     ",
"     O+XX$@%$&      ",
"     OXX$%%#@&      ",
"     +XX%#%%#$&$@   ",
"    OX.#$%#@%X$%    ",
"     X.#X$%@%X+     ",
"     O+XXXX@%$      ",
"      OOX+#%$O      ",
"        OO@$$O      ",
"          #%   +    ",
"         @$Xo.X     ",
"         ooo        ",
"       ..           ",
"                    ",
"                    ",
"                    ",
"   ..ooooo.XO       ",
"      @$XX          ",
"       #%$+         ",
"       O@%$O        ",
"      O+#@%$+O      ",
"     OXXX$@%X$%@    ",
"     +XX$%@%$@$     ",
"    X.#$%#%#@&      ",
"    X.#$%#%#@&      ",
"     +XX$%@%$@$     ",
"     OXXX$@%X$%@    ",
"      O+#@%$+O      ",
"       O@%$O        ",
"       #%$+         ",
"      @$XX          ",
"   ..ooooo.XO       ",
"                    ",
"                    ",
"                    ",
"       ..           ",
"         ooo        ",
"         @$Xo.X     ",
"          #%X  +    ",
"        OO@$$O      ",
"      OOX+#%$O      ",
"     O.XXXX@%$O     ",
"     +.#X$%@%X+     ",
"    OX.#$%#@%X$%    ",
"     +XX%#%%#$&$@   ",
"     OXX$%%#@&      ",
"     O+XX$@%$&      ",
"      O#@%%XX@$     ",
" .    #@%$$+$%@     ",
"  .o@$X$++O O       ",
"    oooX            ",
"       o.           ",
"         O          ",
"                    ",
"          O         ",
"           .        ",
"            o       ",
"            @o      ",
"            #$o     ",
"        OOOOO%X.    ",
"      X.+XX+@%+ +   ",
"      ..#XXX@$$     ",
"     O+#$$$$@%O     ",
"     OXX$%#@@%+     ",
"O    OXX$#%%%XXO    ",
" .   O+X$@%#@$$%    ",
"  o@#O@@@@%@@&$%@   ",
"   o$%%$%%X$&       ",
"    oX+$O+X$$       ",
"     .    O%%       ",
"      +     @       ",
"                    ",
"                    ",
"                    ",
"                    ",
"              .     ",
"               .    ",
"               o    ",
"         O     @o   ",
"       OXX+OO  $o   ",
"      O+..XX+O#Xo   ",
" .    OX##XXX#@$Xo  ",
" .   OXXX$%$X@%+ .  ",
"  o@ O+X$%#%$%$+    ",
"  o$#@#X%#%%@%$O  O ",
"  oX%$%@@@%#%X+     ",
"   o $$%%%#@$X$O    ",
"   . OO$XX$&&@%     ",
"   X    +$&  $@     ",
"    +    %$         ",
"          @         ",
"                    ",
"                    ",
"                    "};
