/* XPM */
static char *C4[] = {
/* width height ncolors chars_per_pixel */
"20 320 7 1",
/* colors */
"` c None",
"a c #900000",
"b c #C00000",
"c c #00D000",
"d c #F00000",
"e c #009000",
"f c #005000",
/* pixels */
"````````````````````",
"```````f`````f``````",
"`````fe```````ef````",
"````ffe`fecef`eff```",
"````fce`e```e`ecf```",
"```ffcefeeceefecff``",
"```fece`fecef`ecef``",
"``ffece`fecef`eceff`",
"``feece`fecef`eceef`",
"``feeceffeceffeceef`",
"``feecefecccefeceef`",
"``feeccceeeeeccceef`",
"``feeceeefffeeeceef`",
"``feecef`````feceef`",
"``ffeceefcccfeeceff`",
"```feeccceeeccceef``",
"```ffeeeeccceeeeff``",
"````ff`dbaaabd`ff```",
"``````a`bdddb`a`````",
"````````````````````",
"````````````````````",
"```````ffe`f````````",
"```````ffe``````````",
"`````ffcce`fe```f```",
"````ffecefe``cef`e``",
"```fefece`eec`e`eff`",
"```feece`ffecee`ecf`",
"```feece`fecef`fecf`",
"``feeceeffecef`ecff`",
"``feeccfeeceef`ecef`",
"`feeecececccffeceeff",
"`ffeceeefeeeefeceef`",
"``fecef``ffecceceef`",
"`ffeccefc``eeeceef``",
"``feeececcf`feceef``",
"```f`deceeceeceeef``",
"```a`baacceccceff```",
"`````bddabeeeeeff```",
"````````dbd`fff`````",
"```````````a`f``````",
"````````````````````",
"``````````fffe``````",
"``````f`fffcee``````",
"`````fffeecee```````",
"````ffeeecee`ee`````",
"```ffeeecee`e``c````",
"``ffeeecee`fee``e```",
"`ffeeeceeffeece`e`ee",
"``feecccffeeceee`eef",
"`feeceecececeef`eecf",
"`ffeeefeeeceef`eecff",
"`feecef`feecffeecef`",
"```eeccc`feefeeceef`",
"`aadececc`ecceceef``",
"```baccecffecceeeff`",
"```ddaccceeeceeeff``",
"````ddaeececeeeff```",
"`````dbdeeeeeeff````",
"```````a`efefff`````",
"```````a`fff`f``````",
"````````````````````",
"``````````f`````````",
"````````ffffffff````",
"`````fffeeeefccfe```",
"```ffeeeeeecceee`f``",
"```ffeeeccceef``f```",
"``feeecceee```eee```",
"`ffecceecfffffe`c```",
"``fecefecefeeecc`e``",
"`a`ece`eeececcee`f`f",
"``deecf`fecceefee```",
"``bbcec`fecefff`feee",
"``dacecc`feef``eecff",
"```dacef`ecfeeecccff",
"```daecefeececceef``",
"```bbdeceeccceefff``",
"``````eccceeeeeef```",
"````afeeeeeeefff````",
"``````ffffeff```````",
"```````f`ff`````````",
"````````````````````",
"````````````````````",
"``````ffffffff``````",
"````fffeeeeeefff````",
"```ffeeeeeeeeeefff``",
"```feecccccccccccff`",
"``a`eceeeceeeeeeeee`",
"```decefecff```f```f",
"``bbecf`eeeffffeef``",
"``dacec`feceeeee`e``",
"``dacec`fecccccc`c``",
"``dacec`feceeeee`e``",
"``bbecf`eeeffffeef``",
"```decefecff```f```f",
"``a`eceeeceeeeeeeee`",
"```feecccccccccccff`",
"```ffeeeeeeeeeefff``",
"````fffeeeeeefff````",
"``````ffffffff``````",
"````````````````````",
"````````````````````",
"```````f`ff`````````",
"``````ffffeff```````",
"````afeeeeeeefff````",
"``````eccceeeeeef```",
"```bbdeceeccceefff``",
"```daecefeececceef``",
"```dacef`ecfeeecccff",
"``dacecc`feef``eecff",
"``bbcec`fecefff`feee",
"``deecf`fecceefee```",
"`a`ece`eeececcee`f`f",
"``fecefecefeeecc`e``",
"`ffecceecfffffe`c```",
"``feeecceee```eee```",
"```ffeeeccceef``f```",
"```ffeeeeeecceee`f``",
"`````fffeeeefccfe```",
"````````ffffffff````",
"``````````f`````````",
"````````````````````",
"```````a`fff`f``````",
"```````a`efefff`````",
"`````dbdeeeeeeff````",
"````ddaeececeeeff```",
"```ddaccceeeceeeff``",
"```baccecffecceeeff`",
"`aadececc`ecceceef``",
"```eeccc`feefeeceef`",
"`feecef`feecffeecef`",
"`ffeeefeeeceef`eecff",
"`feeceecececeef`eecf",
"``feecccffeeceee`eef",
"`ffeeeceeffeece`e`ee",
"``ffeeecee`fee``e```",
"```ffeeecee`e``c````",
"````ffeeecee`ee`````",
"`````fffeecee```````",
"``````f`fffcee``````",
"``````````fffe``````",
"````````````````````",
"```````````a`f``````",
"````````dbd`fff`````",
"`````bddabeeeeeff```",
"```a`baacceccceff```",
"```f`deceeceeceeef``",
"``feeececcf`feceef``",
"`ffeccefc``eeeceef``",
"``fecef``ffecceceef`",
"`ffeceeefeeeefeceef`",
"`feeecececccffeceeff",
"``feeccfeeceef`ecef`",
"``feeceeffecef`ecff`",
"```feece`fecef`fecf`",
"```feece`ffecee`ecf`",
"```fefece`eec`e`eff`",
"````ffecefe``cef`e``",
"`````ffcce`fe```f```",
"```````ffe``````````",
"```````ffe`f````````",
"````````````````````",
"````````````````````",
"``````a`bdddb`a`````",
"````ff`dbaaabd`ff```",
"```ffeeeeccceeeeff``",
"```feeccceeeccceef``",
"``ffeceefcccfeeceff`",
"``feecef`````feceef`",
"``feeceeefffeeeceef`",
"``feeccceeeeeccceef`",
"``feecefecccefeceef`",
"``feeceffeceffeceef`",
"``feece`fecef`eceef`",
"``ffece`fecef`eceff`",
"```fece`fecef`ecef``",
"```ffcefeeceefecff``",
"````fce`e```e`ecf```",
"````ffe`fecef`eff```",
"`````fe```````ef````",
"```````f`````f``````",
"````````````````````",
"```````f`a``````````",
"``````fff`dbd```````",
"````ffeeeeebaddb````",
"````ffeccceccaab`a``",
"```feeeceeceeced`f``",
"```feecef`fcceceeef`",
"```feeceee``cfecceff",
"``feececceff``fecef`",
"``feecefeeeefeeeceff",
"`ffeeceffcccececeeef",
"``fece`feeceefcceef`",
"``ffce`feceffeeceef`",
"``fcef`fecef`eceef``",
"``fce`eeceff`eceef``",
"``ffe`e`cee`ecefef``",
"```e`fec``efeceff```",
"````f```ef`eccff````",
"```````````eff``````",
"`````````f`eff``````",
"````````````````````",
"```````f`fff`a``````",
"``````fffefe`a``````",
"`````ffeeeeeedbd````",
"````ffeeececeeadd```",
"```ffeeeceeecccadd``",
"``ffeeecceffceccab``",
"```feececce`ccecedaa",
"``feeceefeef`cccee``",
"``feceeffceef`feceef",
"`ffcee`feeceeefeeeff",
"`fcee`feecececeeceef",
"`fee`eeeceeffccceef`",
"`ee`e`eceeffeeceeeff",
"````e``eef`eeceeeff`",
"`````c``e`eeceeeff``",
"``````ee`eeceeeff```",
"````````eeceefff````",
"```````eecfff`f`````",
"```````efff`````````",
"````````````````````",
"``````````ff`f``````",
"````````ffeffff`````",
"`````fffeeeeeeefa```",
"````feeeeeeccce`````",
"```fffeeccceecedbb``",
"```feecceceefecead``",
"`ffccceeefce`fecad``",
"`ffcee``feef`ccecad`",
"`eeef`fffecef`cecbb`",
"````eefeeccef`fceed`",
"`f`f`eecceceee`ece`a",
"```e`cceeefecefecef`",
"````c`efffffceecceff",
"````eee```eeecceeef`",
"````f``feeccceeeff``",
"```f`eeecceeeeeeff``",
"````efccfeeeefff````",
"`````ffffffff```````",
"``````````f`````````",
"````````````````````",
"````````````````````",
"```````ffffffff`````",
"`````fffeeeeeefff```",
"```fffeeeeeeeeeeff``",
"``ffccccccccccceef``",
"``eeeeeeeeeceeece`a`",
"`f```f```ffcefeced``",
"```feeffffeee`fcebb`",
"```e`eeeeecef`cecad`",
"```c`ccccccef`cecad`",
"```e`eeeeecef`cecad`",
"```feeffffeee`fcebb`",
"`f```f```ffcefeced``",
"``eeeeeeeeeceeece`a`",
"``ffccccccccccceef``",
"```fffeeeeeeeeeeff``",
"`````fffeeeeeefff```",
"```````ffffffff`````",
"````````````````````",
"````````````````````",
"``````````f`````````",
"`````ffffffff```````",
"````efccfeeeefff````",
"```f`eeecceeeeeeff``",
"````f``feeccceeeff``",
"````eee```eeecceeef`",
"````c`efffffceecceff",
"```e`cceeefecefecef`",
"`f`f`eecceceee`ece`a",
"````eefeeccef`fceed`",
"`eeef`fffecef`cecbb`",
"`ffcee``feef`ccecad`",
"`ffccceeefce`fecad``",
"```feecceceefecead``",
"```fffeeccceecedbb``",
"````feeeeeeccce`````",
"`````fffeeeeeeefa```",
"````````ffeffff`````",
"``````````ff`f``````",
"````````````````````",
"```````efff`````````",
"```````eecfff`f`````",
"````````eeceefff````",
"``````ee`eeceeeff```",
"`````c``e`eeceeeff``",
"````e``eef`eeceeeff`",
"`ee`e`eceeffeeceeeff",
"`fee`eeeceeffccceef`",
"`fcee`feecececeeceef",
"`ffcee`feeceeefeeeff",
"``feceeffceef`feceef",
"``feeceefeef`cccee``",
"```feececce`ccecedaa",
"``ffeeecceffceccab``",
"```ffeeeceeecccadd``",
"````ffeeececeeadd```",
"`````ffeeeeeedbd````",
"``````fffefe`a``````",
"```````f`fff`a``````",
"````````````````````",
"`````````f`eff``````",
"```````````eff``````",
"````f```ef`eccff````",
"```e`fec``efeceff```",
"``ffe`e`cee`ecefef``",
"``fce`eeceff`eceef``",
"``fcef`fecef`eceef``",
"``ffce`feceffeeceef`",
"``fece`feeceefcceef`",
"`ffeeceffcccececeeef",
"``feecefeeeefeeeceff",
"``feececceff``fecef`",
"```feeceee``cfecceff",
"```feecef`fcceceeef`",
"```feeeceeceeced`f``",
"````ffeccceccaab`a``",
"````ffeeeeebaddb````",
"``````fff`dbd```````",
"```````f`a``````````"
};
