/* XPM */
static char *noname[] = {
/* width height ncolors chars_per_pixel */
"20 320 7 1",
/* colors */
"` c None",
"a c #FFFF8E8E5757",
"b c #0000E5E50000",
"c c #0000B0B00000",
"d c #BFBF6A6A4141",
"e c #010100000000",
"f c #000081810000",
/* pixels */
"````````````````````",
"``````````f`````````",
"`````````fbf````````",
"````````fcecf```````",
"```````fceeecf``````",
"``````fcceeeccf`````",
"`````fccccbccccf````",
"````fcccccbcccccf```",
"`````ffffcbcffff````",
"`````````fbf````````",
"````````fcbcf```````",
"````````fcbcf```````",
"```````fccbccf``````",
"```````fccbccf``````",
"``````fcccbcccf`````",
"``````fcccbcccf`````",
"```````fffffff``````",
"````````aaaaa```````",
"````````ddadd```````",
"````````````````````",
"````````````````````",
"`````````````f``````",
"````````````fb``````",
"``````````ffcef`````",
"```````ffccceecf````",
"`````fcccceeeec`````",
"``````fccccbcccf````",
"```````fffcbcccf````",
"``````````cbccccf```",
"````````fcfbfffccf``",
"```````fcbcf``ff````",
"``````fccbcf````````",
"`````ffccbcc````````",
"````fccccbccf```````",
"`````fccbbccf```````",
"`````fffccccf```````",
"`````aaaffff````````",
"`````ddaaa``````````",
"````````dd``````````",
"````````````````````",
"````````````````````",
"````````````````````",
"````````````````````",
"````````ffcffcfff```",
"```````fcccccecbf```",
"````````ffccceeec```",
"`````````fccbeecf```",
"``````````cbbcecf```",
"````````fffbccccc```",
"````fffcccbffcccf```",
"````fccccbcc`ffcf```",
"```fcccbbcff``fcf```",
"````fccbccc`````````",
"``daffbccff`````````",
"```daafccc``````````",
"````adaffcf`````````",
"`````da``f``````````",
"````````````````````",
"````````````````````",
"````````````````````",
"````````````````````",
"````````````````````",
"````````````````````",
"``````````f`f```````",
"```````````cccff````",
"``````````ffccccf```",
"```````````fcccecff`",
"``````````f`fcceeeb`",
"````ffff`fcfcbbeecf`",
"```fccccccbbbccecf``",
"````fcccbbbcfccccf``",
"``dafccbcccf`fccc```",
"``dafbccccf``fccf```",
"```aaffccff```fcf```",
"```daafcc`````ff````",
"```d```ff```````````",
"````````````````````",
"````````````````````",
"````````````````````",
"````````````````````",
"````````````````````",
"````````````````````",
"````````````````````",
"````````````````````",
"`````````````f``````",
"````````````fcf`````",
"`````ff`````fccf````",
"````fccff```fcccf```",
"``dafccccff`fccccf``",
"``dafccccccfccceecf`",
"``aafbbbbbbbbbbeeebf",
"``dafccccccfccceecf`",
"``dafccccff`fccccf``",
"````fccff```fcccf```",
"`````ff`````fccf````",
"````````````fcf`````",
"`````````````f``````",
"````````````````````",
"````````````````````",
"````````````````````",
"````````````````````",
"````````````````````",
"````````````````````",
"````````````````````",
"```d```ff```````````",
"```daafcc`````ff````",
"```aaffccff```fcf```",
"``dafbccccf``fccf```",
"``dafccbcccf`fccc```",
"````fcccbbbcfccccf``",
"```fccccccbbbccecf``",
"````ffff`fcfcbbeecf`",
"``````````f`fcceeeb`",
"```````````fcccecff`",
"``````````ffccccf```",
"```````````cccff````",
"``````````f`f```````",
"````````````````````",
"````````````````````",
"````````````````````",
"````````````````````",
"````````````````````",
"````````````````````",
"`````da``f``````````",
"````adaffcf`````````",
"```daafccc``````````",
"``daffbccff`````````",
"````fccbccc`````````",
"```fcccbbcff``fcf```",
"````fccccbcc`ffcf```",
"````fffcccbffcccf```",
"````````fffbccccc```",
"``````````cbbcecf```",
"`````````fccbeecf```",
"````````ffccceeec```",
"```````fcccccecbf```",
"````````ffcffcfff```",
"````````````````````",
"````````````````````",
"````````````````````",
"````````````````````",
"````````dd``````````",
"`````ddaaa``````````",
"`````aaaffff````````",
"`````fffccccf```````",
"`````fccbbccf```````",
"````fccccbccf```````",
"`````ffccbcc````````",
"``````fccbcf````````",
"```````fcbcf``ff````",
"````````fcfbfffccf``",
"``````````cbccccf```",
"```````fffcbcccf````",
"``````fccccbcccf````",
"`````fcccceeeec`````",
"```````ffccceecf````",
"``````````ffcef`````",
"````````````fb``````",
"`````````````f``````",
"````````````````````",
"````````````````````",
"````````ddadd```````",
"````````aaaaa```````",
"```````fffffff``````",
"``````fcccbcccf`````",
"``````fcccbcccf`````",
"```````fccbccf``````",
"```````fccbccf``````",
"````````fcbcf```````",
"````````fcbcf```````",
"`````````fbf````````",
"`````ffffcbcffff````",
"````fcccccbcccccf```",
"`````fccccbccccf````",
"``````fcceeeccf`````",
"```````fceeecf``````",
"````````fcecf```````",
"`````````fbf````````",
"``````````f`````````",
"````````````````````",
"````````````````````",
"````````````````````",
"```````````dd```````",
"`````````f`aaadd````",
"````````fcfffaa`````",
"````````fcccbfa`````",
"````````fccccff`````",
"````````fccbcccf````",
"`````````cbccccf````",
"````````fcbccf``````",
"```f`f`fcbbcff``````",
"````cff`fbcf````````",
"```fcccfcbf`````````",
"````ccccbccff```````",
"````fcccbccccff`````",
"````fceeeeccccf`````",
"`````fceecccff``````",
"``````fecff`````````",
"``````fbf```````````",
"````````````````````",
"````````````````````",
"````````````````````",
"`````````````d``````",
"```````````f`ad`````",
"`````````ffcffaa````",
"`````````fcccfadd```",
"`````````fcccbfaa```",
"````f````ccbbccf````",
"```fcf``fccbcccf````",
"```fcff`fcbccfccf```",
"```cccccfbcfcf`f````",
"```fcccbbfcf````````",
"```fccbbcf``````````",
"```ceeecccf`````````",
"```fceeeccff````````",
"```fbecccccc````````",
"```ffcffcfff````````",
"````````````````````",
"````````````````````",
"````````````````````",
"````````````````````",
"````````````````````",
"````````````````````",
"````````````````````",
"`````````````f``````",
"`````f``````fcffad``",
"`````cf````ffccfad``",
"````fccf``fccccfaa``",
"````fccf`fccccbcfad`",
"````cccf`cbbbbbcfad`",
"```fcecccfccccccf```",
"```fcebbbbffccccf```",
"``fceecccf```fff````",
"`fbeeecccf``````````",
"```fcccccff`````````",
"````f`ffccf`````````",
"````````fc``````````",
"`````````f``````````",
"````````````````````",
"````````````````````",
"````````````````````",
"````````````````````",
"````````````````````",
"````````````````````",
"```````f````````````",
"``````fcf```````````",
"`````fccf`````ff````",
"````fcccf```ffccf```",
"```fccccf`ffccccfad`",
"``fceecccfccccccfad`",
"`fbeeebbbbbbbbbbfaa`",
"``fceecccfccccccfad`",
"```fccccf`ffccccfad`",
"````fcccf```ffccf```",
"`````fccf`````ff````",
"``````fcf```````````",
"```````f````````````",
"````````````````````",
"````````````````````",
"````````````````````",
"````````````````````",
"````````````````````",
"````````````````````",
"````````````````````",
"```````ff```````````",
"``````fccf``````````",
"````ffcccf``````````",
"``fcccccf```````````",
"`fbeeeccf```````````",
"``fceebccfffcf`ff```",
"``feecbbbccccfcc````",
"```cccccfbbbccccf```",
"```fcccf`cccbbbcfad`",
"```fccf`ffccccffad``",
"````fcf```fcccfaaa``",
"`````cf````fccfadd``",
"````f``````fff``````",
"````````````````````",
"````````````````````",
"````````````````````",
"````````````````````",
"````````````````````",
"````````````````````",
"````````````````````",
"```ff`ffcfff````````",
"```beccccccf````````",
"```fceeecccf````````",
"```feeeccff`````````",
"``fcccbcc```````````",
"```fcccbbfcf````````",
"```cccfcbbcfff``````",
"```fccf`fcbccccff```",
"```cff``fcbbcccc````",
"```f`````fccbccff```",
"````````fccccbfaa```",
"`````````fccffadd```",
"`````````fccfaaa````",
"``````````ff`dd`````",
"````````````````````",
"````````````````````",
"````````````````````",
"````````````````````",
"``````ff````````````",
"``````fbcf``````````",
"``````ceecff````````",
"`````feeeccccff`````",
"````fceebccccc``````",
"```fccccbccfff``````",
"````fccccbcf````````",
"````cccfcbf`````````",
"```ffff`fbcff```````",
"```````fccbccf``````",
"````````fcbccf``````",
"````````fccbcccf````",
"````````fccbcccf````",
"````````cccbcfff````",
"```````fccfffaa`````",
"```````f`faaadd`````",
"```````````dda``````",
"````````````````````"
};
