/* XPM */
static char *noname[] = {
/* width height ncolors chars_per_pixel */
"20 320 6 1",
/* colors */
"` c None",
"a c #FFFF8E8E5757",
"b c #BFBF63636A6A",
"c c #BFBF6A6A4141",
"d c #FFFFFFFFFFFF",
"e c #FFFF84848E8E",
/* pixels */
"````````````````````",
"````````````````````",
"````````````````````",
"````a```a``a```a````",
"````caaac``caaac````",
"`````aa``````aa`````",
"`````caceeeecac`````",
"``````ca`ee`ac``````",
"```````a`ee`a```````",
"```beebeddddebeeb```",
"```ebbbeeeeeebbbe```",
"```````deeeed```````",
"`````bebddddbeb`````",
"`````eb``````be`````",
"`````eb``````be`````",
"````````````````````",
"````````````````````",
"````````````````````",
"````````````````````",
"````````````````````",
"````````````````````",
"```````a````````````",
"```````c````````````",
"```````aaaaa````````",
"```````ca``c``a`````",
"```````ace```ca``a``",
"````b``ca`eee`aaac``",
"```ebee`a`ee`caa````",
"`````bbbedee`acc````",
"```````eeeddda``````",
"````bedeeeeeeb``````",
"````ebbddeedbbeeb```",
"````eb```ddb``be````",
"````````````eb``````",
"````````````be``````",
"```````````be```````",
"````````````````````",
"````````````````````",
"````````````````````",
"````````````````````",
"```````````a````````",
"`````````ca`````````",
"``````````aa````````",
"``````b``caaaca`````",
"`````ee``cc`````````",
"``````be`aaee```a```",
"``````bbe``ee`ca````",
"````eb`bedeeee``a```",
"````ebedeedd``caaaca",
"````b`bdeeedaacca```",
"````````deeee```````",
"````````dddebe``````",
"``````````b`bbe`````",
"`````````be``bb`````",
"`````````beb``e`````",
"``````````e`````````",
"````````````````````",
"````````````````````",
"````````````````````",
"````````````````````",
"````````````````````",
"``````````````ca````",
"``````````````a`````",
"```````eb```caa`````",
"````````be``caaa````",
"````````be``ac`ca```",
"`````eb`bbea`e``````",
"`````ebe`eed`ee`````",
"`````b`bdeedeee`ca``",
"```````ddeede`e`a```",
"`````````deed`ac`a``",
"`````````deeeacaaa``",
"`````````bdbb``caca`",
"`````````be`be``````",
"````````beb`be``````",
"````````e```eb``````",
"````````````````````",
"````````````````````",
"````````````````````",
"````````````````````",
"````````````````````",
"````````````````````",
"````````````````````",
"``````````eb````````",
"``````````be````ca``",
"``````eeb`be``caa```",
"``````bbe`bb`caaa```",
"````````bdeeaac`a```",
"````````deed``e`ca``",
"````````deedeee`````",
"````````deedeee`````",
"````````deed``e`ca``",
"````````bdeeaac`a```",
"``````bbe`bb`caaa```",
"``````eeb`be``caa```",
"``````````be````ca``",
"``````````eb````````",
"````````````````````",
"````````````````````",
"````````````````````",
"````````````````````",
"````````````````````",
"````````````````````",
"````````````````````",
"````````e```eb``````",
"````````beb`be``````",
"`````````be`be``````",
"`````````bdbb``caca`",
"`````````deeeacaaa``",
"`````````deed`ac`a``",
"```````ddeede`e`a```",
"`````b`bdeedeee`ca``",
"`````ebe`eed`ee`````",
"`````eb`bbea`e``````",
"````````be``ac`ca```",
"````````be``caaa````",
"```````eb```caa`````",
"``````````````a`````",
"``````````````ca````",
"````````````````````",
"````````````````````",
"````````````````````",
"````````````````````",
"````````````````````",
"``````````e`````````",
"`````````beb``e`````",
"`````````be``bb`````",
"``````````b`bbe`````",
"````````dddebe``````",
"````````deeee```````",
"````b`bdeeedaacca```",
"````ebedeedd``caaaca",
"````eb`bedeeee``a```",
"``````bbe``ee`ca````",
"``````be`aaee```a```",
"`````ee``cc`````````",
"``````b``caaaca`````",
"``````````aa````````",
"`````````ca`````````",
"```````````a````````",
"````````````````````",
"````````````````````",
"````````````````````",
"````````````````````",
"```````````be```````",
"````````````be``````",
"````````````eb``````",
"````eb```ddb``be````",
"````ebbddeedbbeeb```",
"````bedeeeeeeb``````",
"```````eeeddda``````",
"`````bbbedee`acc````",
"```ebee`a`ee`caa````",
"````b``ca`eee`aaac``",
"```````ace```ca``a``",
"```````ca``c``a`````",
"```````aaaaa````````",
"```````c````````````",
"```````a````````````",
"````````````````````",
"````````````````````",
"````````````````````",
"````````````````````",
"````````````````````",
"````````````````````",
"`````eb``````be`````",
"`````eb``````be`````",
"`````bebddddbeb`````",
"```````deeeed```````",
"```ebbbeeeeeebbbe```",
"```beebeddddebeeb```",
"```````a`ee`a```````",
"``````ca`ee`ac``````",
"`````caceeeecac`````",
"`````aa``````aa`````",
"````caaac``caaac````",
"````a```a``a```a````",
"````````````````````",
"````````````````````",
"````````````````````",
"````````````````````",
"````````````````````",
"````````````````````",
"````````````````````",
"````````````````````",
"``````eeb```````````",
"``````bb````````````",
"```e```ebd``````````",
"```bbbb`dd````be````",
"````eebeeeddbbe`````",
"``````eeeeeedeb`````",
"``````adddeeb```````",
"```cca``eedebbbe````",
"```aaceee``a`eeb````",
"`caaa``eeeac````````",
"`a``ac````cac```````",
"`````a``ca`aa```````",
"````````a`aac```````",
"````````````a```````",
"````````````````````",
"````````````````````",
"````````````````````",
"````````````````````",
"````````````````````",
"```````eeb``````````",
"````e``bb```````````",
"```bebb`eb``````````",
"`````ebbdd``````````",
"``````eeeedd````````",
"`c`cca`deeed`bb`````",
"`aaaca`edeedbeee````",
"a`aa`eeeddee``b`````",
"```a`eee`aebb```````",
"```c```e`a`ebb``````",
"```a``c`cc``ebe`````",
"``````a`ac``````````",
"`````a`aaa``````````",
"````````a```````````",
"````````c```````````",
"````````a```````````",
"````````````````````",
"````````````````````",
"````````````````````",
"```````e````````````",
"``````bb``bee```````",
"```````eb`ebb```````",
"```````eb`db````````",
"`acacac`beed````````",
"```aacaaeeed````````",
"```a`e``deeed```````",
"```a``eeedeed```````",
"```ac`eeededb``b````",
"``````e``deb`ebe````",
"`````c`caabb`be`````",
"````aaaac``eb```````",
"``````aac``ee```````",
"``````a````b````````",
"`````ac`````````````",
"````````````````````",
"````````````````````",
"````````````````````",
"````````````````````",
"````````````````````",
"````````````````````",
"`````````be`````````",
"```ac````eb`````````",
"````aac``eb`bee`````",
"````aaac`bb`ebb`````",
"````a`caaeedb```````",
"```ac`e``deed```````",
"``````eeedeed```````",
"``````eeedeed```````",
"```ac`e``deed```````",
"````a`caaeedb```````",
"````aaac`bb`ebb`````",
"````aac``eb`bee`````",
"```ac````eb`````````",
"`````````be`````````",
"````````````````````",
"````````````````````",
"````````````````````",
"````````````````````",
"````````````````````",
"`````a``````````````",
"`````c``````````````",
"`````aac```b````````",
"`````aaa``eee```````",
"```aa`cc`bbb````````",
"````c`eaaeb``b``````",
"``````e``dedbeee````",
"``a``eeedeed`bb`````",
"```c`eeedeed````````",
"```a`c``deed````````",
"aaaaaaaeeed`````````",
"`c`acc`bedb`````````",
"```````eb`e`````````",
"``````eb`bbb````````",
"``````bb``ee````````",
"```````e````````````",
"````````````````````",
"````````````````````",
"````````````````````",
"````````a```````````",
"```````ac```````````",
"```````aaa``````````",
"`````aa`ac``````````",
"``````c`cc``ebe`````",
"```a```eaa`ebb``````",
"``ac`ee``ebb````````",
"a`aa`eeeedee`b``````",
"caaac``edeedebe`````",
"```ccaaddeedb`be````",
"``````eeeed`````````",
"`````ebbded`````````",
"````ebb`bd``````````",
"```be``eb```````````",
"```````beb``````````",
"````````e```````````",
"````````````````````",
"````````````````````",
"````````````````````",
"````````````````````",
"```````````a````````",
"````````a``ac```````",
"````````caaa````````",
"`````a````aac```````",
"`a`aac``eecc````````",
"`caa``eee`a```b`````",
"```acac`ee`abeee````",
"`````ca`eddebbb`````",
"``````addeeed```````",
"````ebeeeeeebeb`````",
"``bebbededdd`be`````",
"```eb```bd````be````",
"``````be````````````",
"``````eb````````````",
"``````eb````````````",
"````````````````````",
"````````````````````",
"````````````````````"
};
