/* XPM */
static char *noname[] = {
/* width height ncolors chars_per_pixel */
"20 320 8 1",
/* colors */
"` c None",
"a c #606000",
"b c #900000",
"c c #F0F000",
"d c #C00000",
"e c #A0A000",
"f c #0000F0",
"g c #F00000",
/* pixels */
"````````````````````",
"````````````````````",
"````````````````````",
"````d````bab````d```",
"```dgd``bdedb``dgd``",
"```dgdbbdgcgdbbdgd``",
"```becedggcggdeceb``",
"`````eced```dece````",
"``````ecee`eece`````",
"```````ececece``````",
"````````eccce```````",
"`````````ece````````",
"`````````ece````````",
"`````````ece````````",
"`````````ece````````",
"`````````ece````````",
"`````````fef````````",
"````````fffff```````",
"`````````fff````````",
"````````````````````",
"````````````````````",
"```````d````````````",
"``````dg````````````",
"`````dgdd```b```````",
"`````becbbbdeab`````",
"```````eeddgcdb`````",
"```````cedggcgd``dd`",
"```````ece``ggdbbdgd",
"````````ece``deecgd`",
"````````eeceeecceeb`",
"`````````ccccee`````",
"````````eecee```````",
"````````ece`````````",
"````````ece`````````",
"```````ece``````````",
"```````fce``````````",
"`````fffef``````````",
"``````ffff``````````",
"````````f```````````",
"````````````````````",
"````````````````````",
"`````````dgd````````",
"````````bggd````````",
"````````eed`````````",
"`````````ceb`bb`````",
"`````````cedddda````",
"`````````eegggedb```",
"`````````ee`gcgdb```",
"`````````cee`ggd````",
"`````````cece`gdb`dd",
"````````eeceeeeeedgg",
"```````eececceeccegd",
"``````eecee``````eb`",
"`````fecee``````````",
"````ffeee```````````",
"```fffff````````````",
"````fff`````````````",
"`````f``````````````",
"````````````````````",
"````````````````````",
"````````````````````",
"`````````````d``````",
"```````````bdgd`````",
"```````````egdd`````",
"```````````ecb``````",
"```````````ceb``````",
"``````````eceddbb```",
"``````````eedggda```",
"`````````ece`gcceb``",
"`````````ece``ggd```",
"```````eeccce`gdb```",
"```ffeeccececeddb```",
"``ffecceee`eeceebd``",
"```fffe``````ececdgd",
"```ff```````````egd`",
"````f```````````bd``",
"````````````````````",
"````````````````````",
"````````````````````",
"````````````````````",
"````````````````````",
"````````````````````",
"````````````````````",
"``````````````bdd```",
"``````````````eggd``",
"`````````````ecdd```",
"````````````eceb````",
"```````````ecedb````",
"```f``````ecedgdb```",
"``fffeeeeecee`ggdb``",
"``ffeccccccc``ccea``",
"``fffeeeeecee`ggdb``",
"```f``````ecedgdb```",
"```````````ecedb````",
"````````````eceb````",
"`````````````ecdd```",
"``````````````eggd``",
"``````````````bdd```",
"````````````````````",
"````````````````````",
"````````````````````",
"````````````````````",
"````````````````````",
"````````````````````",
"````````````````````",
"````f```````````bd``",
"```ff```````````egd`",
"```fffe``````ececdgd",
"``ffecceee`eeceebd``",
"```ffeeccececeddb```",
"```````eeccce`gdb```",
"`````````ece``ggd```",
"`````````ece`gcceb``",
"``````````eedggda```",
"``````````eceddbb```",
"```````````ceb``````",
"```````````ecb``````",
"```````````egdd`````",
"```````````bdgd`````",
"`````````````d``````",
"````````````````````",
"````````````````````",
"````````````````````",
"`````f``````````````",
"````fff`````````````",
"```fffff````````````",
"````ffeee```````````",
"`````fecee``````````",
"``````eecee``````eb`",
"```````eececceeccegd",
"````````eeceeeeeedgg",
"`````````cece`gdb`dd",
"`````````cee`ggd````",
"`````````ee`gcgdb```",
"`````````eegggedb```",
"`````````cedddda````",
"`````````ceb`bb`````",
"````````eed`````````",
"````````bggd````````",
"`````````dgd````````",
"````````````````````",
"````````````````````",
"````````f```````````",
"``````ffff``````````",
"`````fffef``````````",
"```````fce``````````",
"```````ece``````````",
"````````ece`````````",
"````````ece`````````",
"````````eecee```````",
"`````````ccccee`````",
"````````eeceeecceeb`",
"````````ece``deecgd`",
"```````ece``ggdbbdgd",
"```````cedggcgd``dd`",
"```````eeddgcdb`````",
"`````becbbbdeab`````",
"`````dgdd```b```````",
"``````dg````````````",
"```````d````````````",
"````````````````````",
"````````````````````",
"`````````fff````````",
"````````fffff```````",
"`````````fef````````",
"`````````ece````````",
"`````````ece````````",
"`````````ece````````",
"`````````ece````````",
"`````````ece````````",
"````````eccce```````",
"```````ececece``````",
"``````ecee`eece`````",
"`````eced```dece````",
"```becedggcggdeceb``",
"```dgdbbdgcgdbbdgd``",
"```dgd``bdedb``dgd``",
"````d````bab````d```",
"````````````````````",
"````````````````````",
"````````````````````",
"````````````````````",
"````````````f```````",
"```````````ffff`````",
"```````````fefff````",
"```````````ecf``````",
"```````````ece``````",
"``````````ece```````",
"``````````ece```````",
"````````eecee```````",
"``````eecccc````````",
"``beecceeecee```````",
"``dgceed``ece```````",
"`dgdbbdgg``ece``````",
"``dd``dgcggdec``````",
"``````bdcgddee``````",
"``````baedbbbceb````",
"````````b```ddgd````",
"`````````````gd`````",
"`````````````d``````",
"````````````````````",
"````````````````````",
"````````````````````",
"```````````````f````",
"``````````````fff```",
"`````````````fffff``",
"````````````eeeff```",
"```````````eecef````",
"``be``````eecee`````",
"`dgecceeccecee``````",
"`ggdeeeeeecee```````",
"`dd`bdg`ecec````````",
"`````dgg`eec````````",
"````bdgcg`ee````````",
"````bdegggee````````",
"`````addddec````````",
"``````bb`bec````````",
"``````````dee```````",
"`````````dggb```````",
"`````````dgd````````",
"````````````````````",
"````````````````````",
"````````````````````",
"````````````````````",
"````````````````````",
"```db```````````f```",
"``dge```````````ff``",
"`dgdcece``````efff``",
"```dbeecee`eeecceff`",
"````bddecececceeff``",
"````bdg`ecccee``````",
"````dgg``ece````````",
"```beccg`ece````````",
"````adggdee`````````",
"````bbddece`````````",
"```````bec``````````",
"```````bce``````````",
"``````ddge``````````",
"``````dgdb``````````",
"```````d````````````",
"````````````````````",
"````````````````````",
"````````````````````",
"````ddb`````````````",
"```dgge`````````````",
"````ddce````````````",
"`````bece```````````",
"`````bdece``````````",
"````bdgdece``````f``",
"```bdgg`eeceeeeefff`",
"```aecc``ccccccceff`",
"```bdgg`eeceeeeefff`",
"````bdgdece``````f``",
"`````bdece``````````",
"`````bece```````````",
"````ddce````````````",
"```dgge`````````````",
"````ddb`````````````",
"````````````````````",
"````````````````````",
"````````````````````",
"```````d````````````",
"``````dgdb``````````",
"``````ddge``````````",
"```````bce``````````",
"```````bec``````````",
"````bbddece`````````",
"````adggdee`````````",
"```beccg`ece````````",
"````dgg``ece````````",
"````bdg`ecccee``````",
"````bddecececceeff``",
"```dbeecee`eeecceff`",
"`dgdcece``````efff``",
"``dge```````````ff``",
"```db```````````f```",
"````````````````````",
"````````````````````",
"````````````````````",
"````````````````````",
"````````````````````",
"`````````dgd````````",
"`````````dggb```````",
"``````````dee```````",
"``````bb`bec````````",
"`````addddec````````",
"````bdegggee````````",
"````bdgcg`ee````````",
"`````dgg`eec````````",
"`dd`bdg`ecec````````",
"`ggdeeeeeecee```````",
"`dgecceeccecee``````",
"``be``````eecee`````",
"```````````eecef````",
"````````````eeeff```",
"`````````````fffff``",
"``````````````fff```",
"```````````````f````",
"````````````````````",
"````````````````````",
"````````````````````",
"`````````````d``````",
"`````````````gd`````",
"````````b```ddgd````",
"``````baedbbbceb````",
"``````bdcgddee``````",
"``dd``dgcggdec``````",
"`dgdbbdgg``ece``````",
"``dgceed``ece```````",
"``beecceeecee```````",
"``````eecccc````````",
"````````eecee```````",
"``````````ece```````",
"``````````ece```````",
"```````````ece``````",
"```````````ecf``````",
"```````````fefff````",
"```````````ffff`````",
"````````````f```````",
"````````````````````"
};
