/* XPM */
static char * pause_xpm[] = {
"192 52 46 1",
" 	c None",
".	c #00001C1C1C1C",
"X	c #000038383838",
"o	c #000055555555",
"O	c #1C1C00000000",
"+	c #383800000000",
"@	c #555500000000",
"#	c #00001C1C0000",
"$	c #000038380000",
"%	c #000055550000",
"&	c #000000001C1C",
"*	c #000000003838",
"=	c #000000005555",
"-	c #000071717171",
";	c #00008D8D8D8D",
":	c #0000AAAAAAAA",
">	c #1C1C1C1C0000",
",	c #383838380000",
"<	c #555555550000",
"1	c #717100000000",
"2	c #AAAA00000000",
"3	c #8D8D00000000",
"4	c #00008D8D0000",
"5	c #0000AAAA0000",
"6	c #000000007171",
"7	c #00000000AAAA",
"8	c #0000C6C6C6C6",
"9	c #0000E2E2E2E2",
"0	c #0000FFFFFFFF",
"q	c #717171710000",
"w	c #AAAAAAAA0000",
"e	c #FFFF00000000",
"r	c #E2E200000000",
"t	c #C6C600000000",
"y	c #0000E2E20000",
"u	c #0000FFFF0000",
"i	c #00000000FFFF",
"p	c #FFFFFFFF0000",
"a	c #00000000C6C6",
"s	c #00000000E2E2",
"d	c #C6C6C6C60000",
"f	c #E2E2E2E20000",
"g	c #0000C6C60000",
"h	c #000071710000",
"j	c #8D8D8D8D0000",
"k	c #000000008D8D",
"                                                                                                                                                                                                ",
"                                                                                                                                                                                                ",
"                                                                                                                                                                                                ",
"                                                                                                                                     .XoooooooX.                                                ",
"   O+@@@@@@@@@@@@@@@@@@@@@@+O                        #$%%%%%$#               &*===============*&    &*================*&          .Xo-;:::::::;-oX.       >,<<<<<<<<<<<<<<<<<<<<<<<<<<<<<,>     ",
"   +1222222222222222222222231@+O                    #%4555554%#              *67777777777777776*    *677777777777777776*        .X-;:89000000098:;-X.     ,qwwwwwwwwwwwwwwwwwwwwwwwwwwwwwq,     ",
"   @2eeeeeeeeeeeeeeeeeeeeeert231+O                  $4yuuuuuy4$              =7iiiiiiiiiiiiiii7=    =7iiiiiiiiiiiiiiii7=       .o;8900098:::8900098;o.    <wpppppppppppppppppppppppppppppw<     ",
"   +12treeeeeeeeert2222treeeeert3@O                 %5uuuuuuu5%              *67asiiiiiiiiisa76*    *677asiiiiiiiiisa76*      .o:900098;-ooo-:900009;X    ,qwdfpppppppppfdwwwwwwwwdfpppppw<     ",
"   O+@12reeeeeeer21@@@@12reeeeeer2@O                %5uuuuuuugh#             &*=67siiiiiiis76=*&    &*==67siiiiiiis76=*&     .o:900008;X.   .o;89000:o    >,<qwfpppppppfwq<<<<<<<<qwfppppw<     ",
"      O1teeeeeeet1O    O@2reeeeeer3+               #hguuuuuuuy4$                &6aiiiiiiia6&           &6aiiiiiiia6&       .o:900009;X      .X;8000:o       >qdpppppppdq>        ><wfpppw<     ",
"       @2eeeeeee2@      O@2reeeeeet1O              $4yuuuuuuuu5%                 =7iiiiiii7=             =7iiiiiii7=        X;9000008-.        X;900:o        <wpppppppw<          ><wfppw<     ",
"       @2eeeeeee2@       O1teeeeeer3+              %5uuuuuuuuugh#                =7iiiiiii7=             =7iiiiiii7=        o:000000:o         .o:90:o        <wpppppppw<           ><wfpw<     ",
"       @2eeeeeee2@        +3reeeeeet1O            #hguyyyuuuuuy4$                =7iiiiiii7=             =7iiiiiii7=       .-8000000:o          .-80:o        <wpppppppw<            >qdpw<     ",
"       @2eeeeeee2@        O1teeeeeer3+            $4yy55guuuuuu5%                =7iiiiiii7=             =7iiiiiii7=       X;9000000:o           o:0:o        <wpppppppw<             <wpw<     ",
"       @2eeeeeee2@         @2eeeeeee2@            %5ughh5uuuuuugh#               =7iiiiiii7=             =7iiiiiii7=       o:00000008-.          X;9:o        <wpppppppw<             ,jfw<     ",
"       @2eeeeeee2@         @2eeeeeee2@           #hgu5%%5uuuuuuy4$               =7iiiiiii7=             =7iiiiiii7=       o:00000009;X          .-8:o        <wpppppppw<             ><jq,     ",
"       @2eeeeeee2@         @2eeeeeee2@           $4yy4$$4yuuuuuu5%               =7iiiiiii7=             =7iiiiiii7=       o:000000008-.          X--X        <wpppppppw<              >,,>     ",
"       @2eeeeeee2@         @2eeeeeee2@           %5ugh##hguuuuuu5%               =7iiiiiii7=             =7iiiiiii7=       o:000000009:o.         .XX.        <wpppppppw<         >,,>          ",
"       @2eeeeeee2@         @2eeeeeee2@           %5u5%  %5uuuuuugh#              =7iiiiiii7=             =7iiiiiii7=       o:0000000009:o.                    <wpppppppw<         ,qq,          ",
"       @2eeeeeee2@         @2eeeeeee2@          #hgy4$  $4yuuuuuy4$              =7iiiiiii7=             =7iiiiiii7=       X;90000000009:-X.                  <wpppppppw<        >qdw<          ",
"       @2eeeeeee2@        O1teeeeeer3+          $4ygh#  #hguuuuuu5%              =7iiiiiii7=             =7iiiiiii7=       .-8000000000098;-oX.               <wpppppppw<        ,jfw<          ",
"       @2eeeeeee2@        +3reeeeeet1O          %5u5%    %5uuuuuugh#             =7iiiiiii7=             =7iiiiiii7=        X;90000000000098:;-X.             <wpppppppw<       >qdpw<          ",
"       @2eeeeeee2@       O1teeeeeer3+          #hgu5%    %5uuuuuuy4$             =7iiiiiii7=             =7iiiiiii7=        .o:9000000000000098;-X.           <wpppppppdj<<<<<<<qwfpw<          ",
"       @2eeeeeee2@      O@2reeeeeet1O          $4yy4$    $4yuuuuuu5%             =7iiiiiii7=             =7iiiiiii7=         .o:90000000000000098;o.          <wpppppppfdwwwwwwwdfppw<          ",
"       @2eeeeeee2@     O@2reeeeeer3+           %5ugh#    #hguuuuuugh#            =7iiiiiii7=             =7iiiiiii7=          .o:90000000000000009:o.         <wppppppppppppppppppppw<          ",
"       @2eeeeeeet3@@@@@12reeeeeer2@O          #hgu5%      %5uuuuuuy4$            =7iiiiiii7=             =7iiiiiii7=           .o;89000000000000009:o.        <wpppppppfdwwwwwwwdfppw<          ",
"       @2eeeeeeert22222treeeeert3@O           $4yy4$      $4yuuuuuu5%            =7iiiiiii7=             =7iiiiiii7=            .X-;8900000000000009:o.       <wpppppppdj<<<<<<<qwfpw<          ",
"       @2eeeeeeeeeeeeeeeeert2231+O            %5uy5h%%%%%%h5yuuuuuugh#           =7iiiiiii7=             =7iiiiiii7=              .X-;890000000000009:o.      <wpppppppw<       >qdpw<          ",
"       @2eeeeeeert2222222231@@+O             #hguyg55555555gyuuuuuuy4$           =7iiiiiii7=             =7iiiiiii7=                .X-;89000000000009;X      <wpppppppw<        ,jfw<          ",
"       @2eeeeeeet3@@@@@@@@+O                 $4yuuuuuuuuuuuuuuuuuuuu5%           =7iiiiiii7=             =7iiiiiii7=                  .X-;8900000000008-.     <wpppppppw<        >qdw<          ",
"       @2eeeeeee2@                           %5uyg555555555gyuuuuuuugh#          =7iiiiiii7=             =7iiiiiii7=                    .X-:90000000009;X     <wpppppppw<         ,qq,          ",
"       @2eeeeeee2@                          #hgug4%%%%%%%%%h5yuuuuuuy4$          =7iiiiiii7=             =7iiiiiii7=      .XooX.          .o:9000000000:o     <wpppppppw<         >,,>          ",
"       @2eeeeeee2@                          $4yu5%         #hguuuuuuu5%          =7iiiiiii7=             =7iiiiiii7=      .o;:-X           .o:900000000:o     <wpppppppw<                >>>    ",
"       @2eeeeeee2@                          %5uy4$          %5uuuuuuugh#         =7iiiiiii7=             =7iiiiiii7=      .-80:o            .o:90000000:o     <wpppppppw<               ><<,    ",
"       @2eeeeeee2@                         #hgugh#          $4yuuuuuuy4$         =7iiiiiii7=             =7iiiiiii7=       o:08-.            .-80000000:o     <wpppppppw<               ,jj<    ",
"       @2eeeeeee2@                         $4yu5%           #hguuuuuuu5%         =7iiiiiii7=             =7iiiiiisk*       o:09;X             o:0000000:o     <wpppppppw<              >qdw<    ",
"       @2eeeeeee2@                         %5uy4$            %5uuuuuuugh#        *ksiiiiiia6&           &6aiiiiiia6&       o:008-.            o:0000009;X     <wpppppppw<              ,jfw<    ",
"       @2eeeeeee2@                        #hgugh#            %5uuuuuuuy4$        &6aiiiiiisk*           *ksiiiiii7=        o:009;X            o:0000008-.     <wpppppppw<             >qdpw<    ",
"       @2eeeeeee2@                        $4yu5%             $4yuuuuuuu5%         =7iiiiiii7=           =7iiiiiisk*        o:0008-.           o:000009;X      <wpppppppw<             ,jfpw<    ",
"       @2eeeeeee2@                       #hguu5%             #hguuuuuuugh#        *ksiiiiiia6&         &6aiiiiiia6&        o:0009:o.         .-8000008-.      <wpppppppdq>           >qdppw<    ",
"       @2eeeeeeet1O                     #%5yuy4$              %5uuuuuuuy4$        &=7siiiiis7=&       &=7siiiiisk*         o:00009:o.       .o:900009;X       <wpppppppfw<>        >,qwfppw<    ",
"      O1teeeeeeer21@@@+O             #$%h5yuuy4%$%$#      #$%%4guuuuuuuug4%%$#     &=7siiiiis76*&   &*67siiiiis7=&         X;900009:-X.   .X-:900009:o.   >,<<jdppppppppfwq<<<<<<<<qjdfpppw<    ",
"   O+@12reeeeeeeert2221+             $h5gyuuuy5445h$      $h55gyuuuuuuuuyg55h$      &=7siiiiisak6===6kasiiiisak=&          .o:9000098;-ooo-;8900098;o.    ,qwwdfpppppppppfdwwwwwwwwdfpppppw<    ",
"   +12treeeeeeeeeeeeee2@             %5uuuuuuuyyyu5%      %5uuuuuuuuuuuuuuuu5%       &=kasiiiiisa777asiiiisak6*&            .o;89000098:::8900098;-X.     <wppppppppppppppppppppppppppppppw<    ",
"   +1222222222222222221+             $h55555555555h$      $h5555555555555555h$        &*6k77asiiiiiiiisa77k6*&               .X-;::89000000098:;-X.       ,qwwwwwwwwwwwwwwwwwwwwwwwwwwwwwwq,    ",
"   O+@@@@@@@@@@@@@@@@@+O             #$%%%%%%%%%%%$#      #$%%%%%%%%%%%%%%%%$#          &*==6k77777777k6==*&                   .Xoo-;:::::::;-oX.         >,<<<<<<<<<<<<<<<<<<<<<<<<<<<<<<,>    ",
"                                                                                            &*========*&                           .XoooooooX.                                                  ",
"                                                                                                                                                                                                ",
"                                                                                                                                                                                                ",
"                                                                                                                                                                                                ",
"                                                                                                                                                                                                ",
"                                                                                                                                                                                                "};
